<?xml version="1.0" encoding="utf-8"?>
<!-- Generator: Adobe Illustrator 17.1.0, SVG Export Plug-In . SVG Version: 6.00 Build 0)  -->
<!DOCTYPE svg PUBLIC "-//W3C//DTD SVG 1.1//EN" "http://www.w3.org/Graphics/SVG/1.1/DTD/svg11.dtd">
<svg version="1.1" id="Layer_1" xmlns="http://www.w3.org/2000/svg" xmlns:xlink="http://www.w3.org/1999/xlink" x="0px" y="0px"
	 viewBox="0 0 100 29.7" enable-background="new 0 0 100 29.7" xml:space="preserve">
<g>
	<path fill="#EDE7F6" d="M13,7.9c-1.7,0-3.1,0.7-4.1,2.1c-1,1.4-1.5,3.4-1.5,5.9c0,5.2,2,7.8,5.9,7.8c1.2,0,2.4-0.2,3.5-0.5
		c1.1-0.3,2.2-0.7,3.4-1.2v3.3c0,1.8-1.2,3.5-3,3.9c-1.5,0.3-3,0.5-4.7,0.5c-4.1,0-7.2-1.2-9.4-3.5C1.1,23.8,0,20.4,0,15.9
		c0-2.8,0.5-5.2,1.6-7.4c1.1-2.1,2.6-3.7,4.5-4.9c2-1.1,4.3-1.7,7-1.7c2.9,0,5.7,0.6,8.4,1.9l-1,2.6C19.8,8.2,18,9,16.3,8.4
		c0,0,0,0,0,0C15.2,8.1,14.2,7.9,13,7.9z"/>
	<path fill="#EDE7F6" d="M23.6,3.2c0-1.1,0.3-1.9,0.9-2.4C25.1,0.3,26.1,0,27.5,0c1.3,0,2.3,0.3,2.9,0.8c0.6,0.5,0.9,1.3,0.9,2.4
		c0,2.1-1.3,3.2-3.9,3.2C24.9,6.4,23.6,5.3,23.6,3.2z M26.7,29.7h-2.8V12.5c0-2.3,1.8-4.1,4.1-4.1H31v16.9
		C31,27.8,29.1,29.7,26.7,29.7z"/>
	<path fill="#EDE7F6" d="M100,22.9c0,2.2-0.8,3.9-2.3,5.1c-1.5,1.1-3.7,1.7-6.6,1.7c-1.6,0-2.9-0.1-4-0.2c0,0,0,0,0,0
		c-2-0.3-3.5-2.1-3.5-4.2v-2.5c1.1,0.5,2.3,0.9,3.7,1.2c1.3,0.3,2.5,0.5,3.6,0.5c1.6,0,2.3-0.4,2.3-1.1c0-0.4-0.2-0.7-0.7-1
		c-0.4-0.3-1.7-0.9-3.8-1.7c-1.9-0.8-3.3-1.7-4-2.7c-0.8-1-1.1-2.3-1.1-3.8c0-1.9,0.8-3.5,2.3-4.5C87.3,8.6,89.4,8,92.2,8
		c1.4,0,2.7,0.2,3.9,0.5c1.2,0.3,2.5,0.7,3.8,1.3l-0.6,1.5c-0.7,1.7-2.6,2.5-4.3,2c0,0,0,0,0,0c-1.1-0.3-1.9-0.5-2.6-0.5
		c-1.2,0-1.8,0.3-1.8,0.9c0,0.4,0.2,0.7,0.6,0.9c0.4,0.3,1.6,0.8,3.6,1.5c1.5,0.6,2.6,1.2,3.3,1.8c0.7,0.6,1.2,1.3,1.6,2
		C99.8,20.8,100,21.8,100,22.9z"/>
	<path fill="#EDE7F6" d="M45,8.7h-1.7V4.4h-5l-1.8,4.3l-0.7,0.5c-1.5,1.1-2.4,2.8-2.4,4.6v0h2.4v8.6c0,2.5,0.5,4.3,1.6,5.5
		c1.1,1.2,2.8,1.8,5.2,1.8c1.2,0,2.2-0.1,3.1-0.3c0,0,0,0,0,0c1.6-0.3,2.8-1.8,2.8-3.5v-2.7c-1.4,0.5-2.4,0.7-3.4,0.7
		c-1.3,0-1.8-0.7-1.8-2v-8.1h2.3c-0.4-1.4-0.6-3-0.6-4.6C45,9.1,45,8.7,45,8.7z"/>
	<path fill="#EDE7F6" d="M81.1,17.6c0-3.1-0.9-5.5-2.6-7.1s-4.2-2.5-7.3-2.5c-1.2,0-2.3,0.1-3.3,0.4c0,0.2,0,0.5,0,0.7
		c0,5.6-3,11.6-5.6,15.9c0.4,0.7,0.9,1.3,1.5,1.9c1.9,1.9,4.6,2.8,8.1,2.8c1.7,0,3.1-0.1,4.3-0.3c0,0,0,0,0,0c2-0.4,3.5-2.2,3.5-4.2
		V23c-0.9,0.6-2.4,1-3.5,1.2c-1.1,0.2-2.2,0.4-3.5,0.4c-1.4,0-2.5-0.3-3.3-0.9c-0.8-0.7-1.2-1.7-1.3-2.7h9.6
		C79.7,21,81.1,19.5,81.1,17.6L81.1,17.6z M68.3,16.2c0.1-0.9,0.4-2,1-2.5c0.6-0.5,1.3-0.8,2.1-0.8c0.9,0,1.7,0.3,2.2,0.9
		c0.5,0.6,0.8,1.4,0.9,2.4H68.3z"/>
	<path fill="#EDE7F6" d="M56.5,0c-5.1,0-9.2,4.1-9.2,9.2c0,9.2,9.2,20.2,9.2,20.2s9.2-11,9.2-20.2C65.6,4.1,61.5,0,56.5,0z
		 M56.5,14.8c-3.1,0-5.6-2.5-5.6-5.6c0-3.1,2.5-5.6,5.6-5.6c3.1,0,5.6,2.5,5.6,5.6C62.1,12.3,59.6,14.8,56.5,14.8z M52.9,9.2
		c0,2,1.6,3.6,3.6,3.6c2,0,3.6-1.6,3.6-3.6s-1.6-3.6-3.6-3.6C54.5,5.6,52.9,7.2,52.9,9.2z"/>
</g>
</svg>
