<?xml version="1.0" encoding="utf-8"?>
<!-- Generator: Adobe Illustrator 19.2.1, SVG Export Plug-In . SVG Version: 6.00 Build 0)  -->
<svg version="1.1" id="Layer_1" xmlns="http://www.w3.org/2000/svg" xmlns:xlink="http://www.w3.org/1999/xlink" x="0px" y="0px"
	 viewBox="0 0 147.1 58" style="enable-background:new 0 0 147.1 58;" xml:space="preserve">
<style type="text/css">
	.st0{fill:#FFFFFF;}
</style>
<g>
	<g>
		<path class="st0" d="M0,48.3h3.3l1.7,6.9l1.7-6.9h3.3v9.5H8v-7.3H7.8l-1.9,6.9H4l-1.9-6.9H1.9v7.3H0V48.3z"/>
		<path class="st0" d="M16.2,48.3h3.7l2.1,9.5h-1.9l-0.4-1.7h-3.3L16,57.8h-1.9L16.2,48.3z M16.8,54.4h2.6l-1-4.5h-0.7L16.8,54.4z"
			/>
		<path class="st0" d="M26.2,57.8v-9.5h3.2c3.3,0,4,1.4,4,4.6c0,3.2-0.6,4.9-4,4.9H26.2z M29.4,50h-1.3v6.1h1.3c1.9,0,2-1.1,2-3.2
			C31.4,50.8,31.3,50,29.4,50z"/>
		<path class="st0" d="M38,48.3h6.1V50H40v2.2h3.4v1.6H40v2.3h4.2v1.7H38V48.3z"/>
		<path class="st0" d="M58.3,48.3c1.9,0,3,0.7,3,2.5c0,1.1-0.3,1.6-1,2.1c0.8,0.3,1.2,0.9,1.2,2.2c0,1.9-1.2,2.7-3.1,2.7h-3.8v-9.5
			H58.3z M56.5,50v2.3h1.7c0.8,0,1.1-0.4,1.1-1.1c0-0.8-0.4-1.1-1.1-1.1H56.5z M56.5,53.8v2.3h1.8c0.8,0,1.2-0.2,1.2-1.2
			c0-0.8-0.5-1.1-1.2-1.1H56.5z"/>
		<path class="st0" d="M69.5,57.8h-1.9V54l-2.9-5.6h2.1l1.7,3.8l1.7-3.8h2.1L69.5,54V57.8z"/>
		<path class="st0" d="M87.9,50c0,0-2-0.2-2.8-0.2c-1,0-1.5,0.4-1.5,1c0,0.6,0.4,0.8,2,1.3c2,0.7,2.7,1.2,2.7,2.8c0,2.1-1.4,3-3.3,3
			c-1.3,0-3.2-0.4-3.2-0.4L82,56c0,0,1.9,0.3,2.9,0.3c1,0,1.5-0.5,1.5-1.2c0-0.6-0.3-0.9-1.7-1.2c-2.1-0.6-2.9-1.3-2.9-2.9
			c0-2,1.3-2.8,3.2-2.8c1.3,0,3.1,0.4,3.1,0.4L87.9,50z"/>
		<path class="st0" d="M98.2,53.9h-3.5v3.9h-1.9v-9.5h1.9v3.9h3.5v-3.9h1.9v9.5h-1.9V53.9z"/>
		<path class="st0" d="M104.6,53.1c0-3.2,0.9-5,3.9-5c3,0,3.9,1.8,3.9,5s-0.9,4.9-3.9,4.9C105.6,58,104.6,56.3,104.6,53.1z
			 M110.5,53.1c0-2.2-0.4-3.3-2-3.3c-1.6,0-2,1.1-2,3.3c0,2.2,0.4,3.2,2,3.2C110.1,56.3,110.5,55.3,110.5,53.1z"/>
		<path class="st0" d="M119,55v2.8h-1.9v-9.5h3.5c2.2,0,3.4,1.1,3.4,3.3s-1.1,3.4-3.4,3.4H119z M120.6,53.4c1,0,1.4-0.6,1.4-1.8
			c0-1.2-0.5-1.6-1.4-1.6H119v3.4H120.6z"/>
		<path class="st0" d="M132.2,52.7h2.8v4.9c0,0-2,0.3-3.2,0.3c-3.1,0-3.9-1.7-3.9-4.9c0-3.5,1-4.9,3.8-4.9c1.5,0,3.3,0.4,3.3,0.4
			l-0.1,1.5c0,0-1.7-0.2-2.9-0.2c-1.6,0-2.1,0.5-2.1,3.2c0,2.5,0.3,3.2,2.1,3.2c0.6,0,1.2-0.1,1.2-0.1v-1.8h-0.9V52.7z"/>
		<path class="st0" d="M139.2,53.1c0-3.2,0.9-5,3.9-5c3,0,3.9,1.8,3.9,5s-0.9,4.9-3.9,4.9C140.2,58,139.2,56.3,139.2,53.1z
			 M145.1,53.1c0-2.2-0.4-3.3-2-3.3c-1.6,0-2,1.1-2,3.3c0,2.2,0.4,3.2,2,3.2C144.7,56.3,145.1,55.3,145.1,53.1z"/>
	</g>
	<g>
		<g>
			<g>
				<path class="st0" d="M101.9,16H99C97.5,10,92.7,5.2,86.7,3.7V0.8c0-0.4-0.4-0.8-0.8-0.8h-6.4c-0.4,0-0.8,0.4-0.8,0.8v2.9
					C72.7,5.2,67.9,10,66.4,16h-2.9c-0.4,0-0.8,0.4-0.8,0.8v6.4c0,0.4,0.4,0.8,0.8,0.8h2.9c1.5,6.1,6.3,10.9,12.3,12.3v2.9
					c0,0.4,0.4,0.8,0.8,0.8h6.4c0.4,0,0.8-0.4,0.8-0.8v-2.9C92.7,34.8,97.5,30,99,24h2.9c0.4,0,0.8-0.4,0.8-0.8v-6.4
					C102.7,16.4,102.3,16,101.9,16z M82.7,31.2c-6.2,0-11.2-5-11.2-11.2s5-11.2,11.2-11.2c6.2,0,11.2,5,11.2,11.2
					S88.9,31.2,82.7,31.2z"/>
			</g>
		</g>
		<path class="st0" d="M17.6,2.4c4.1,0,8.6,1.7,12,4.6C30,7.4,30.1,8,29.7,8.3l-3.9,4.1c-0.4,0.3-0.9,0.3-1.3,0.1
			c-1.9-1.7-4-2.4-6.4-2.4c-5.3,0-9.7,4.5-9.7,9.9c0,5.3,4.4,9.8,9.7,9.8c1.4,0,2.9-0.2,4.4-0.8v-2.8h-3.1c-0.5,0-0.9-0.4-0.9-0.9
			v-4.9c0-0.5,0.4-0.9,0.9-0.9h9.9c0.5,0,0.9,0.4,0.9,0.9l0,13.2c0,0.2-0.2,0.6-0.4,0.8c0,0-5.1,3.2-12.2,3.2
			C7.9,37.6,0,29.9,0,20.1S7.9,2.4,17.6,2.4z"/>
		<path class="st0" d="M37.9,3.8c0-0.5,0.4-0.9,0.9-0.9h20.3c0.5,0,0.9,0.4,0.9,0.9v5.3c0,0.5-0.4,0.9-0.9,0.9H45.5v6.1h11.2
			c0.5,0,0.9,0.4,0.9,0.9v5.3c0,0.5-0.4,0.9-0.9,0.9H45.5V30h13.6c0.5,0,0.9,0.4,0.9,0.9v5.3c0,0.5-0.4,0.9-0.9,0.9H38.8
			c-0.5,0-0.9-0.4-0.9-0.9V3.8z"/>
		<path class="st0" d="M107.7,3.8c0-0.5,0.4-0.9,0.9-0.9h5.9c0.5,0,0.9,0.4,0.9,0.9v32.5c0,0.5-0.4,0.9-0.9,0.9h-5.9
			c-0.5,0-0.9-0.4-0.9-0.9V3.8z"/>
		<path class="st0" d="M123.4,3.8c0-0.5,0.4-0.9,0.9-0.9h11.8c6,0,11,4.9,11,10.8c0,6.1-5,11-10.9,11H131v11.5
			c0,0.5-0.4,0.9-0.9,0.9h-5.8c-0.5,0-0.9-0.4-0.9-0.9V3.8z M135.7,17.6c2.1,0,3.9-1.7,3.9-3.9c0-2.1-1.8-3.6-3.9-3.6H131v7.5H135.7
			z"/>
		<g>
			<circle class="st0" cx="82.7" cy="20" r="6.4"/>
		</g>
	</g>
</g>
</svg>
