<?xml version="1.0" encoding="utf-8"?>
<!-- Generator: Adobe Illustrator 17.1.0, SVG Export Plug-In . SVG Version: 6.00 Build 0)  -->
<!DOCTYPE svg PUBLIC "-//W3C//DTD SVG 1.1//EN" "http://www.w3.org/Graphics/SVG/1.1/DTD/svg11.dtd">
<svg version="1.1" id="Layer_1" xmlns="http://www.w3.org/2000/svg" xmlns:xlink="http://www.w3.org/1999/xlink" x="0px" y="0px"
	 viewBox="0 0 152 152" enable-background="new 0 0 152 152" xml:space="preserve">
<g>
	<path fill="none" stroke="#6438B8" stroke-width="2" stroke-linecap="round" stroke-linejoin="round" stroke-miterlimit="10" d="
		M1,76c0,41.4,33.6,75,75,75c41.4,0,75-33.6,75-75c0-41.4-33.6-75-75-75C34.6,1,1,34.6,1,76z"/>
	<path fill="none" stroke="#6438B8" stroke-width="2" stroke-linecap="round" stroke-linejoin="round" stroke-miterlimit="10" d="
		M122,104.3c2.8-8.8,0.4-22.9-17.5-33.1c-17.9-10.1-21.4-7.8-22.9-9.3c-1.6-1.6,3.5-1.2,2.7,3.5c-0.8,4.7,2.3,4,4.7,4.1
		c2.3,0.1,3.1,4.8,2.3,7.5c-0.8,2.7,3.9-3.5,7.4,2.3c3.5,5.8-2.3,10.9-7.4,9.3c-12.8-3.9-10.8,7.9-21,15.6
		c-19.1,14.4,8.9,22.6,23.3,24.9c14.4,2.3,34.4-3.5,29.7-8.9C118.5,114.8,121.3,106.5,122,104.3z"/>
	<path fill="none" stroke="#6438B8" stroke-width="2" stroke-linecap="round" stroke-linejoin="round" stroke-miterlimit="10" d="
		M77.3,50.3c1.2-8.9,9.7-1.2,0-10.1c-9.7-8.9-12.1,9.7-10.9-10.5c1.2-20.2,18.3-22.2,4.7-17.9C57.5,16,59.8,12.5,49.7,22.7
		C39.6,32.8,38,38.2,32.6,46.4c-5.4,8.2,3.5,5,9.7,10.9c6.2,5.9,16.3,19.1,24.5,10.5C75,59.2,77.3,50.3,77.3,50.3z"/>
	<path fill="none" stroke="#6438B8" stroke-width="2" stroke-linecap="round" stroke-linejoin="round" stroke-miterlimit="10" d="
		M54.8,148c0.3-5-2.2-18.1-8.9-24.5c-6.7-6.3-28.1-12-28.7-20s-9.7-14-6.3-21.7c3.3-7.7,9.6-18.1,2-24.4c-7.6-6.3-9-1.8-9-1.8"/>
</g>
</svg>
