<?xml version="1.0" encoding="utf-8"?>
<!-- Generator: Adobe Illustrator 17.1.0, SVG Export Plug-In . SVG Version: 6.00 Build 0)  -->
<!DOCTYPE svg PUBLIC "-//W3C//DTD SVG 1.1//EN" "http://www.w3.org/Graphics/SVG/1.1/DTD/svg11.dtd">
<svg version="1.1" id="Layer_1" xmlns="http://www.w3.org/2000/svg" xmlns:xlink="http://www.w3.org/1999/xlink" x="0px" y="0px"
	 viewBox="0 0 118.9 152" enable-background="new 0 0 118.9 152" xml:space="preserve">
<path fill="none" stroke="#5E35B1" stroke-width="2" stroke-miterlimit="10" d="M105,62.8c-4.2,0-8.3,3.7-10,5.7c-1.2,1.5-4,3-5.5,3
	c-1.6,0-3.6-2-3.6-4.5V35.8c0-1.4,0.3-2.4-1.1-2.4H54c-2.5,0-4.4-1.6-4.4-3.6c0-2,1.5-4.4,3-5.6c0.1-0.1,5.6-4.8,5.6-10.1
	c0-7.2-5.8-13.1-13-13.1c-7.1,0-13,5.9-13,13.1c0,5.3,5.5,10,5.6,10.1c1.5,1.2,3,3.7,3,5.6c0,2-1.9,3.6-4.4,3.6H5.7
	c-1.3,0-4.7,1-4.7,2.4v31.3c0,1.4,2.2,2.5,3.6,2.5c1.7,0,4.6-1,5.6-2.3c0.1-0.1,5.5-6.4,11.7-6.4c8.2,0,15,6.8,15,15.1
	s-6.6,15.1-14.8,15.1c-6.2,0-11.4-6.3-11.4-6.4c-1-1.2-4.4-2.3-5.9-2.3c-1.5,0-3.7,1.1-3.7,2.5v31.3c0,1.4,3.3,3.3,4.7,3.3h30.9
	c2.5,0,4.4,1.2,4.4,3.2c0,2-1.5,4.1-3,5.3c-2,1.6-5.6,5.7-5.6,10c0,7.2,5.8,13.1,13,13.1c7.1,0,13-5.9,13-13.2
	c0-5.3-5.5-10-5.6-10.1c-1.5-1.2-3-3.3-3-5.2c0-2,1.9-3.2,4.4-3.2h30.9c1.4,0,1.1-1.9,1.1-3.3V84.8c0-2.5,1.9-4.5,3.6-4.5
	c1.5,0,4,1.6,5.2,3c1.6,2,5.9,5.7,10.1,5.7c7.1,0,13.1-5.9,13.1-13.1S112.2,62.8,105,62.8z"/>
</svg>
