<?xml version="1.0" encoding="utf-8"?>
<!-- Generator: Adobe Illustrator 17.1.0, SVG Export Plug-In . SVG Version: 6.00 Build 0)  -->
<!DOCTYPE svg PUBLIC "-//W3C//DTD SVG 1.1//EN" "http://www.w3.org/Graphics/SVG/1.1/DTD/svg11.dtd">
<svg version="1.1" id="Layer_1" xmlns="http://www.w3.org/2000/svg" xmlns:xlink="http://www.w3.org/1999/xlink" x="0px" y="0px"
	 viewBox="0 0 152 152" enable-background="new 0 0 152 152" xml:space="preserve">
<g>
	<path fill="none" stroke="#6438B8" stroke-width="2" stroke-linecap="round" stroke-linejoin="round" stroke-miterlimit="10" d="
		M151,76c0,41.4-33.6,75-75,75c-41.4,0-75-33.6-75-75C1,34.6,34.6,1,76,1C117.4,1,151,34.6,151,76z"/>
	<path fill="none" stroke="#6438B8" stroke-width="2" stroke-linecap="round" stroke-linejoin="round" stroke-miterlimit="10" d="
		M124.9,82.5c0,27-21.9,48.9-48.9,48.9c-27,0-48.9-21.9-48.9-48.9"/>
	<path fill="none" stroke="#6438B8" stroke-width="2" stroke-linecap="round" stroke-linejoin="round" stroke-miterlimit="10" d="
		M33.6,63c0-7.2,5.8-13,13-13c7.2,0,13,5.8,13,13"/>
	<path fill="none" stroke="#6438B8" stroke-width="2" stroke-linecap="round" stroke-linejoin="round" stroke-miterlimit="10" d="
		M118.4,63c0-7.2-5.8-13-13-13c-7.2,0-13,5.8-13,13"/>
</g>
</svg>
