<svg id="Layer_1" data-name="Layer 1" xmlns="http://www.w3.org/2000/svg" viewBox="0 0 54 54"><defs><style>.cls-1{fill:#fff;}.cls-1,.cls-2{stroke:#2ecc71;stroke-linecap:round;stroke-miterlimit:10;stroke-width:2px;}.cls-2{fill:#e6fff0;}</style></defs><title>ic-1</title><path class="cls-1" d="M202.26,418.49h-2.8a21.87,21.87,0,0,0-2.74-6.61l2-2a1.78,1.78,0,0,0,0-2.52l-4.55-4.55a1.78,1.78,0,0,0-2.52,0l-2,2a21.86,21.86,0,0,0-6.61-2.74v-2.8a1.78,1.78,0,0,0-1.78-1.78h-6.44a1.78,1.78,0,0,0-1.78,1.78v2.8a21.86,21.86,0,0,0-6.61,2.74l-2-2a1.78,1.78,0,0,0-2.52,0l-4.55,4.55a1.78,1.78,0,0,0,0,2.52l2,2a21.87,21.87,0,0,0-2.74,6.61h-2.8a1.78,1.78,0,0,0-1.78,1.78v6.44a1.78,1.78,0,0,0,1.78,1.78h2.8a21.87,21.87,0,0,0,2.74,6.61l-2,2a1.78,1.78,0,0,0,0,2.52l4.55,4.55a1.78,1.78,0,0,0,2.52,0l2-2a21.87,21.87,0,0,0,6.61,2.74v2.8a1.78,1.78,0,0,0,1.78,1.78h6.44a1.78,1.78,0,0,0,1.78-1.78v-2.8a21.87,21.87,0,0,0,6.61-2.74l2,2a1.78,1.78,0,0,0,2.52,0l4.55-4.55a1.78,1.78,0,0,0,0-2.52l-2-2a21.87,21.87,0,0,0,2.74-6.61h2.8a1.78,1.78,0,0,0,1.78-1.78v-6.44A1.78,1.78,0,0,0,202.26,418.49Z" transform="translate(-151.04 -396.49)"/><circle class="cls-1" cx="27" cy="27" r="13"/><circle class="cls-2" cx="27" cy="27" r="9"/></svg>