<svg id="Layer_1" data-name="Layer 1" xmlns="http://www.w3.org/2000/svg" xmlns:xlink="http://www.w3.org/1999/xlink" viewBox="0 0 685 679.86"><defs><style>.cls-1{opacity:0.05;}.cls-2{fill:url(#linear-gradient);}.cls-3{fill:#fff;}.cls-4{fill:url(#linear-gradient-2);}</style><linearGradient id="linear-gradient" x1="137.9" y1="280.51" x2="822.89" y2="280.51" gradientUnits="userSpaceOnUse"><stop offset="0" stop-color="#9b59b6" stop-opacity="0.8"/><stop offset="1" stop-color="#1abc9c"/></linearGradient><linearGradient id="linear-gradient-2" x1="370.56" y1="280.51" x2="590.23" y2="280.51" xlink:href="#linear-gradient"/></defs><title>icon-bg</title><g class="cls-1"><path class="cls-2" d="M412.48,620.44v-62.7c-103.63-25.14-186.08-107-211.41-209.83H137.9V213.11h63.17C226.4,110.26,308.86,28.41,412.48,3.28v-62.7H548.31V3.28c103.63,25.14,186.09,107,211.41,209.83h63.17V347.91H759.72C734.4,450.77,651.94,532.61,548.31,557.75v62.7Z" transform="translate(-137.9 59.42)"/><path class="cls-3" d="M480.4,471.28c-106.26,0-192.21-85.3-192.21-190.77S374.13,89.74,480.4,89.74,672.6,175,672.6,280.51,586.66,471.28,480.4,471.28Z" transform="translate(-137.9 59.42)"/><path class="cls-4" d="M480.4,171.5c-60.68,0-109.83,48.78-109.83,109s49.15,109,109.83,109,109.83-48.78,109.83-109S541.08,171.5,480.4,171.5Z" transform="translate(-137.9 59.42)"/></g></svg>