<svg id="Layer_1" data-name="Layer 1" xmlns="http://www.w3.org/2000/svg" viewBox="0 0 57 55"><defs><style>.cls-1{fill:#e6fff0;}.cls-1,.cls-2,.cls-3{stroke:#2ecc71;stroke-linecap:round;stroke-miterlimit:10;stroke-width:2px;}.cls-2{fill:none;}.cls-3{fill:#fff;}</style></defs><title>ic-2</title><rect class="cls-1" x="1" y="12" width="55" height="12"/><path class="cls-2" d="M-55,37.58l.76-.76a6,6,0,0,0,0-8.49h0a6,6,0,0,0-8.49,0l-7.78,7.78a5.89,5.89,0,0,0-1,1.47Z" transform="translate(94.46 -25.58)"/><path class="cls-2" d="M-77.49,37.58h6a5.89,5.89,0,0,1,1-1.47l4.24-4.24-3.54-3.54a6,6,0,0,0-8.49,0,6,6,0,0,0,0,8.49Z" transform="translate(94.46 -25.58)"/><rect class="cls-3" x="6" y="24" width="46" height="30"/><line class="cls-2" x1="29" y1="12" x2="29" y2="54"/><line class="cls-2" x1="6" y1="38" x2="52" y2="38"/></svg>