<?xml version="1.0" encoding="utf-8"?>
<!-- Generator: Adobe Illustrator 17.1.0, SVG Export Plug-In . SVG Version: 6.00 Build 0)  -->
<!DOCTYPE svg PUBLIC "-//W3C//DTD SVG 1.1//EN" "http://www.w3.org/Graphics/SVG/1.1/DTD/svg11.dtd">
<svg version="1.1" id="Layer_1" xmlns="http://www.w3.org/2000/svg" xmlns:xlink="http://www.w3.org/1999/xlink" x="0px" y="0px"
	 viewBox="0 0 150 54.2" enable-background="new 0 0 150 54.2" xml:space="preserve">
<g>
	<g>
		<g>
			<path fill="#EDE7F6" d="M38,7.9c-1.7,0-3.1,0.7-4.1,2.1c-1,1.4-1.5,3.4-1.5,5.9c0,5.2,2,7.8,5.9,7.8c1.2,0,2.4-0.2,3.5-0.5
				c1.1-0.3,2.2-0.7,3.4-1.2v6.2c-2.3,1-4.8,1.5-7.6,1.5c-4.1,0-7.2-1.2-9.4-3.5c-2.2-2.4-3.3-5.8-3.3-10.2c0-2.8,0.5-5.2,1.6-7.4
				c1.1-2.1,2.6-3.7,4.5-4.9c2-1.1,4.3-1.7,7-1.7c2.9,0,5.7,0.6,8.4,1.9l-2.2,5.7c-1-0.5-2-0.9-3-1.2C40.2,8.1,39.2,7.9,38,7.9z"/>
			<path fill="#EDE7F6" d="M48.6,3.2c0-1.1,0.3-1.9,0.9-2.4C50.1,0.3,51.1,0,52.5,0c1.3,0,2.3,0.3,2.9,0.8c0.6,0.5,0.9,1.3,0.9,2.4
				c0,2.1-1.3,3.2-3.9,3.2C49.9,6.4,48.6,5.3,48.6,3.2z M56,29.3h-7.2V8.4H56V29.3z"/>
			<path fill="#EDE7F6" d="M125,22.9c0,2.2-0.8,3.9-2.3,5.1c-1.5,1.1-3.7,1.7-6.6,1.7c-1.6,0-2.9-0.1-4-0.2
				c-1.1-0.2-2.3-0.5-3.5-0.9v-5.8c1.1,0.5,2.3,0.9,3.7,1.2c1.3,0.3,2.5,0.5,3.6,0.5c1.6,0,2.3-0.4,2.3-1.1c0-0.4-0.2-0.7-0.7-1
				c-0.4-0.3-1.7-0.9-3.8-1.7c-1.9-0.8-3.3-1.7-4-2.7c-0.8-1-1.1-2.3-1.1-3.8c0-1.9,0.8-3.5,2.3-4.5c1.5-1.1,3.6-1.6,6.4-1.6
				c1.4,0,2.7,0.2,3.9,0.5c1.2,0.3,2.5,0.7,3.8,1.3l-2,4.7c-1-0.4-2-0.8-3-1.1c-1.1-0.3-1.9-0.5-2.6-0.5c-1.2,0-1.8,0.3-1.8,0.9
				c0,0.4,0.2,0.7,0.6,0.9c0.4,0.3,1.6,0.8,3.6,1.5c1.5,0.6,2.6,1.2,3.3,1.8c0.7,0.6,1.2,1.3,1.6,2C124.8,20.8,125,21.8,125,22.9z"
				/>
			<path fill="#EDE7F6" d="M70,8.7h-1.7V4.4h-5l-1.8,4.3l-3.1,2.2v3h2.4v8.6c0,2.5,0.5,4.3,1.6,5.5c1.1,1.2,2.8,1.8,5.2,1.8
				c1.2,0,2.2-0.1,3.1-0.3c0.9-0.2,1.8-0.5,2.8-0.9v-5.3c-1.4,0.5-2.4,0.7-3.4,0.7c-1.3,0-1.8-0.7-1.8-2v-8.1h2.3
				c-0.4-1.4-0.6-3-0.6-4.6C70,9.1,70,8.7,70,8.7z"/>
			<path fill="#EDE7F6" d="M106.1,17.6c0-3.1-0.9-5.5-2.6-7.1c-1.7-1.6-4.2-2.5-7.3-2.5c-1.2,0-2.3,0.1-3.3,0.4c0,0.2,0,0.5,0,0.7
				c0,5.6-3,11.6-5.6,15.9c0.4,0.7,0.9,1.3,1.5,1.9c1.9,1.9,4.6,2.8,8.1,2.8c1.7,0,3.1-0.1,4.3-0.3c1.2-0.2,2.6-0.6,3.5-1.2V23
				c-0.9,0.6-2.4,1-3.5,1.2c-1.1,0.2-2.2,0.4-3.5,0.4c-1.4,0-2.5-0.3-3.3-0.9c-0.8-0.7-1.2-1.7-1.3-2.7h12.9V17.6z M93.3,16.2
				c0.1-0.9,0.4-2,1-2.5c0.6-0.5,1.3-0.8,2.1-0.8c0.9,0,1.7,0.3,2.2,0.9c0.5,0.6,0.8,1.4,0.9,2.4H93.3z"/>
			<path fill="#EDE7F6" d="M81.5,0c-5.1,0-9.2,4.1-9.2,9.2c0,9.2,9.2,20.2,9.2,20.2s9.2-11,9.2-20.2C90.6,4.1,86.5,0,81.5,0z
				 M81.5,14.8c-3.1,0-5.6-2.5-5.6-5.6c0-3.1,2.5-5.6,5.6-5.6c3.1,0,5.6,2.5,5.6,5.6C87.1,12.3,84.6,14.8,81.5,14.8z M77.9,9.2
				c0,2,1.6,3.6,3.6,3.6c2,0,3.6-1.6,3.6-3.6s-1.6-3.6-3.6-3.6C79.5,5.6,77.9,7.2,77.9,9.2z"/>
		</g>
		<g>
			<text transform="matrix(1 0 0 1 -5.912781e-005 50.0998)" fill="#EDE7F6" font-family="'Roboto-Light'" font-size="14.9819">Made with</text>
			<text transform="matrix(1 0 0 1 85.9804 50.0998)" fill="#EDE7F6" font-family="'Roboto-Light'" font-size="14.9819">by</text>
			<g>
				<path fill="#EDE7F6" d="M108.4,42.2c-1.5,0-2.2,0.5-2.2,1.6c0,0.5,0.2,0.9,0.5,1.1c0.3,0.2,1,0.4,2,0.6c1.1,0.2,1.8,0.4,2.2,0.7
					c0.4,0.3,0.6,0.8,0.6,1.6c0,0.8-0.3,1.4-0.8,1.8c-0.5,0.4-1.3,0.6-2.3,0.6c-0.6,0-1.3-0.1-2.2-0.2l-0.5-0.1l0.1-0.5
					c1.2,0.2,2.1,0.3,2.8,0.3c0.7,0,1.3-0.1,1.7-0.4c0.4-0.3,0.6-0.7,0.6-1.4c0-0.7-0.2-1.1-0.5-1.3c-0.3-0.2-1-0.4-2.1-0.5
					c-1-0.2-1.8-0.4-2.2-0.6c-0.4-0.3-0.6-0.7-0.6-1.4c0-0.6,0.1-1.1,0.4-1.5c0.3-0.3,0.6-0.6,1-0.7c0.4-0.1,0.8-0.2,1.2-0.2
					c0.9,0,1.7,0.1,2.5,0.2l0.4,0.1l0,0.5C110,42.3,109.1,42.2,108.4,42.2"/>
				<path fill="#EDE7F6" d="M113.2,50h-0.6v-12h0.6v4.3c1-0.4,2-0.6,3-0.6c1,0,1.7,0.3,2.1,0.8c0.3,0.6,0.5,1.6,0.5,3.3V50h-0.6
					v-4.2c0-1.4-0.1-2.4-0.4-2.9c-0.3-0.5-0.8-0.7-1.7-0.7c-0.4,0-0.9,0.1-1.4,0.2c-0.5,0.1-0.8,0.2-1.1,0.3l-0.4,0.2V50z"/>
				<path fill="#EDE7F6" d="M120.7,42.6c0.5-0.6,1.4-0.9,2.6-0.9c1.2,0,2.1,0.3,2.6,0.9c0.5,0.6,0.8,1.7,0.8,3.3
					c0,1.6-0.2,2.7-0.7,3.3c-0.4,0.6-1.3,0.9-2.7,0.9c-1.3,0-2.2-0.3-2.7-0.9c-0.4-0.6-0.7-1.7-0.7-3.3
					C119.9,44.3,120.2,43.2,120.7,42.6 M121.8,49.5c0.4,0.1,0.8,0.2,1.5,0.2c0.6,0,1.1-0.1,1.5-0.2c0.4-0.1,0.6-0.4,0.8-0.7
					c0.2-0.3,0.3-0.7,0.4-1.2c0.1-0.4,0.1-1,0.1-1.8c0-1.4-0.2-2.3-0.6-2.8c-0.4-0.5-1.1-0.8-2.2-0.8c-1.1,0-1.8,0.3-2.1,0.8
					c-0.4,0.5-0.6,1.4-0.6,2.8c0,0.8,0,1.4,0.1,1.8c0.1,0.4,0.2,0.8,0.4,1.2C121.2,49.1,121.5,49.4,121.8,49.5"/>
				<path fill="#EDE7F6" d="M127.9,53.8v-12h0.6v0.7c0.3-0.2,0.8-0.4,1.3-0.6c0.6-0.2,1.1-0.3,1.5-0.3c1,0,1.7,0.3,2.1,1
					c0.4,0.7,0.7,1.7,0.7,3.2c0,1.5-0.3,2.6-0.8,3.2c-0.5,0.7-1.4,1-2.7,1c-0.7,0-1.5-0.1-2.2-0.2v3.9H127.9z M131.3,42.2
					c-0.4,0-0.9,0.1-1.3,0.2c-0.5,0.1-0.8,0.3-1.1,0.4l-0.4,0.2v6.4c0.8,0.2,1.6,0.2,2.2,0.2c1.1,0,1.8-0.3,2.2-0.9
					c0.4-0.6,0.6-1.5,0.6-2.9c0-1.3-0.2-2.3-0.5-2.8C132.6,42.5,132,42.2,131.3,42.2"/>
				<path fill="#EDE7F6" d="M142.5,51.1c0,0.9-0.4,1.6-1.1,2.1c-0.7,0.4-1.7,0.7-2.9,0.7c-1.2,0-2.2-0.2-2.8-0.5
					c-0.7-0.3-1-0.9-1-1.8c0-0.7,0.4-1.3,1.2-2c-0.4-0.3-0.6-0.7-0.6-1.2c0-0.2,0.2-0.6,0.5-1.1l0.1-0.2c-0.7-0.5-1.1-1.3-1.1-2.4
					c0-1,0.3-1.8,0.9-2.3c0.6-0.5,1.5-0.7,2.5-0.7c0.5,0,0.9,0.1,1.4,0.2l0.3,0l2.6-0.1v1.8l-1.2-0.1c0.2,0.4,0.4,0.7,0.4,1.1
					c0,1.1-0.3,1.8-0.8,2.3c-0.6,0.4-1.4,0.6-2.6,0.6c-0.3,0-0.5,0-0.7-0.1c-0.1,0.3-0.2,0.5-0.2,0.7c0,0.2,0.1,0.3,0.3,0.4
					c0.2,0.1,0.6,0.1,1.3,0.1c1.4,0,2.3,0.2,2.8,0.5C142.3,49.5,142.5,50.1,142.5,51.1 M136.9,51.3c0,0.5,0.6,0.7,1.7,0.7
					c1.2,0,1.7-0.3,1.7-0.8c0-0.3-0.1-0.5-0.3-0.6c-0.2-0.1-0.6-0.1-1.2-0.1l-1.5-0.1C137,50.7,136.9,51,136.9,51.3 M137,44.6
					c0,0.8,0.4,1.2,1.3,1.2c0.8,0,1.3-0.4,1.3-1.2c0-0.8-0.4-1.2-1.3-1.2C137.4,43.4,137,43.8,137,44.6"/>
				<path fill="#EDE7F6" d="M143.3,42.8c0.6-0.7,1.5-1.1,2.9-1.1c1.4,0,2.3,0.4,2.9,1.1c0.6,0.7,0.9,1.8,0.9,3.2
					c0,2.9-1.3,4.3-3.8,4.3c-2.5,0-3.8-1.4-3.8-4.3C142.5,44.6,142.7,43.5,143.3,42.8 M145,47.8c0.2,0.4,0.6,0.6,1.2,0.6
					c0.6,0,1-0.2,1.2-0.6c0.2-0.4,0.3-1,0.3-1.9c0-0.8-0.1-1.5-0.3-1.8c-0.2-0.4-0.6-0.6-1.2-0.6c-0.6,0-1,0.2-1.2,0.6
					c-0.2,0.4-0.3,1-0.3,1.8C144.7,46.8,144.8,47.4,145,47.8"/>
			</g>
			<path fill="#EDE7F6" d="M82.8,43.5c0,0.9-0.4,1.8-1.1,2.4h0l-3.5,3.5c-0.4,0.4-0.7,0.7-1.1,0.7s-0.7-0.4-1.1-0.7l-3.5-3.5h0
				c-0.6-0.6-1.1-1.4-1.1-2.4c0-1.8,1.4-3.2,3.2-3.2c0.9,0,1.8,0.4,2.4,1.1c0.6-0.6,1.4-1.1,2.4-1.1C81.3,40.3,82.8,41.7,82.8,43.5z
				"/>
		</g>
	</g>
</g>
</svg>
