<?xml version="1.0" encoding="utf-8"?>
<!-- Generator: Adobe Illustrator 17.1.0, SVG Export Plug-In . SVG Version: 6.00 Build 0)  -->
<!DOCTYPE svg PUBLIC "-//W3C//DTD SVG 1.1//EN" "http://www.w3.org/Graphics/SVG/1.1/DTD/svg11.dtd">
<svg version="1.1" id="Layer_1" xmlns="http://www.w3.org/2000/svg" xmlns:xlink="http://www.w3.org/1999/xlink" x="0px" y="0px"
	 viewBox="0 0 148.7 54" enable-background="new 0 0 148.7 54" xml:space="preserve">
<g>
	<g>
		<g>
			<g>
				<path fill="#EDE7F6" d="M1.2,39.6L5.1,49l3.9-9.4h1.2v10.7H9.4v-4.7l0.1-4.7l-4,9.4H4.8l-4-9.4l0.1,4.7v4.7H0V39.6H1.2z"/>
				<path fill="#EDE7F6" d="M17.8,50.3c0-0.1-0.1-0.3-0.1-0.5c0-0.2,0-0.4-0.1-0.6c-0.1,0.2-0.3,0.3-0.5,0.5
					c-0.2,0.2-0.4,0.3-0.6,0.4c-0.2,0.1-0.5,0.2-0.7,0.3c-0.3,0.1-0.6,0.1-0.9,0.1c-0.4,0-0.7-0.1-1-0.2c-0.3-0.1-0.6-0.3-0.8-0.5
					c-0.2-0.2-0.4-0.4-0.5-0.7c-0.1-0.3-0.2-0.6-0.2-0.9c0-0.4,0.1-0.7,0.2-1c0.2-0.3,0.4-0.6,0.7-0.8c0.3-0.2,0.7-0.4,1.1-0.5
					c0.4-0.1,0.9-0.2,1.5-0.2h1.6v-0.9c0-0.6-0.2-1-0.5-1.3S16.2,43,15.5,43c-0.3,0-0.6,0-0.8,0.1c-0.3,0.1-0.5,0.2-0.7,0.3
					c-0.2,0.1-0.3,0.3-0.4,0.5c-0.1,0.2-0.2,0.4-0.2,0.6l-0.9,0c0-0.3,0.1-0.6,0.2-0.9c0.1-0.3,0.4-0.5,0.6-0.7s0.6-0.4,1-0.5
					c0.4-0.1,0.8-0.2,1.2-0.2c0.4,0,0.8,0.1,1.2,0.2s0.7,0.3,0.9,0.5s0.5,0.5,0.6,0.8c0.1,0.3,0.2,0.7,0.2,1.1v3.8
					c0,0.1,0,0.3,0,0.4c0,0.1,0,0.3,0,0.4s0,0.3,0.1,0.4s0.1,0.2,0.1,0.3v0.1H17.8z M15,49.7c0.3,0,0.6,0,0.9-0.1s0.5-0.2,0.7-0.3
					c0.2-0.1,0.4-0.3,0.6-0.5c0.2-0.2,0.3-0.4,0.4-0.6v-1.7h-1.5c-0.4,0-0.9,0-1.2,0.1s-0.7,0.2-0.9,0.3c-0.2,0.2-0.4,0.3-0.6,0.6
					s-0.2,0.5-0.2,0.7c0,0.2,0,0.4,0.1,0.6c0.1,0.2,0.2,0.4,0.4,0.5c0.2,0.1,0.3,0.3,0.6,0.3C14.5,49.6,14.7,49.7,15,49.7z"/>
				<path fill="#EDE7F6" d="M20.4,46.3c0-0.6,0.1-1.2,0.2-1.7c0.1-0.5,0.3-0.9,0.6-1.3s0.6-0.6,1-0.8c0.4-0.2,0.8-0.3,1.3-0.3
					c0.6,0,1,0.1,1.4,0.3c0.4,0.2,0.7,0.5,1,0.9v-4.4h0.9v11.2H26l0-1.1c-0.3,0.4-0.6,0.7-1,0.9c-0.4,0.2-0.9,0.3-1.5,0.3
					c-0.5,0-0.9-0.1-1.3-0.3c-0.4-0.2-0.7-0.5-1-0.8s-0.5-0.8-0.6-1.3c-0.1-0.5-0.2-1-0.2-1.6V46.3z M21.3,46.4c0,0.5,0,0.9,0.1,1.3
					c0.1,0.4,0.2,0.7,0.4,1c0.2,0.3,0.4,0.5,0.7,0.7s0.6,0.2,1,0.2c0.3,0,0.6,0,0.8-0.1s0.5-0.2,0.6-0.3s0.4-0.3,0.5-0.5
					s0.3-0.4,0.4-0.6v-3.7c-0.1-0.2-0.2-0.4-0.3-0.6s-0.3-0.3-0.5-0.5c-0.2-0.1-0.4-0.3-0.6-0.3C24.3,43,24,43,23.6,43
					c-0.4,0-0.8,0.1-1,0.3s-0.5,0.4-0.7,0.7c-0.2,0.3-0.3,0.6-0.4,1c-0.1,0.4-0.1,0.8-0.1,1.3V46.4z"/>
				<path fill="#EDE7F6" d="M32.2,50.4c-0.5,0-1-0.1-1.4-0.3c-0.4-0.2-0.8-0.5-1.1-0.8c-0.3-0.3-0.6-0.8-0.7-1.2
					c-0.2-0.5-0.3-1-0.3-1.6v-0.3c0-0.6,0.1-1.2,0.3-1.7c0.2-0.5,0.4-0.9,0.7-1.3c0.3-0.3,0.7-0.6,1.1-0.8c0.4-0.2,0.8-0.3,1.3-0.3
					c0.5,0,0.9,0.1,1.3,0.3c0.4,0.2,0.7,0.4,1,0.8c0.3,0.3,0.5,0.7,0.6,1.1c0.1,0.4,0.2,0.9,0.2,1.5v0.5h-5.6v0.2
					c0,0.4,0.1,0.8,0.2,1.2c0.1,0.4,0.3,0.7,0.6,1s0.5,0.5,0.9,0.7c0.3,0.2,0.7,0.2,1.1,0.2c0.5,0,0.9-0.1,1.2-0.3
					c0.4-0.2,0.7-0.4,1-0.8L35,49c-0.1,0.2-0.3,0.4-0.5,0.5c-0.2,0.2-0.4,0.3-0.6,0.4s-0.5,0.2-0.8,0.3
					C32.9,50.4,32.5,50.4,32.2,50.4z M32,43c-0.3,0-0.6,0.1-0.9,0.2c-0.3,0.1-0.5,0.3-0.7,0.5c-0.2,0.2-0.4,0.5-0.5,0.8
					c-0.1,0.3-0.2,0.7-0.3,1.1h4.7v-0.1c0-0.3-0.1-0.7-0.2-1c-0.1-0.3-0.2-0.6-0.4-0.8c-0.2-0.2-0.4-0.4-0.7-0.6
					C32.7,43,32.4,43,32,43z"/>
				<path fill="#EDE7F6" d="M42.4,48.5l0.1,0.7l0.2-0.7l1.9-6.1h0.7l1.9,6l0.2,0.8l0.2-0.8l1.6-6.1h0.9l-2.3,7.9h-0.7L45,44
					l-0.1-0.4L44.9,44l-2,6.3h-0.7l-2.3-7.9h0.9L42.4,48.5z"/>
				<path fill="#EDE7F6" d="M51.7,40.1c0-0.2,0.1-0.3,0.2-0.4c0.1-0.1,0.3-0.2,0.4-0.2s0.3,0.1,0.4,0.2c0.1,0.1,0.2,0.3,0.2,0.4
					s-0.1,0.3-0.2,0.4c-0.1,0.1-0.3,0.2-0.4,0.2s-0.3-0.1-0.4-0.2C51.8,40.4,51.7,40.3,51.7,40.1z M52.8,50.3h-0.9v-7.9h0.9V50.3z"
					/>
				<path fill="#EDE7F6" d="M56.5,40.4v2h1.6v0.7h-1.6v5.3c0,0.3,0,0.5,0.1,0.7c0.1,0.2,0.1,0.3,0.2,0.4c0.1,0.1,0.2,0.2,0.3,0.2
					c0.1,0,0.3,0,0.4,0c0.1,0,0.3,0,0.4,0c0.1,0,0.2,0,0.3,0l0,0.7c-0.1,0-0.2,0.1-0.4,0.1c-0.2,0-0.3,0-0.5,0c-0.2,0-0.5,0-0.7-0.1
					c-0.2-0.1-0.4-0.2-0.5-0.3c-0.2-0.2-0.3-0.4-0.4-0.6c-0.1-0.3-0.1-0.6-0.1-1v-5.3h-1.5v-0.7h1.5v-2H56.5z"/>
				<path fill="#EDE7F6" d="M60.8,43.7c0.1-0.2,0.3-0.4,0.5-0.6c0.2-0.2,0.4-0.3,0.6-0.5c0.2-0.1,0.5-0.2,0.7-0.3
					c0.3-0.1,0.5-0.1,0.8-0.1c0.4,0,0.7,0.1,1.1,0.2c0.3,0.1,0.6,0.3,0.8,0.5s0.4,0.5,0.5,0.9c0.1,0.4,0.2,0.8,0.2,1.3v5.2h-0.9
					v-5.2c0-0.4,0-0.8-0.1-1s-0.2-0.5-0.4-0.7s-0.4-0.3-0.6-0.4S63.5,43,63.2,43c-0.3,0-0.6,0.1-0.8,0.2c-0.3,0.1-0.5,0.2-0.7,0.4
					c-0.2,0.2-0.4,0.4-0.5,0.6s-0.3,0.5-0.3,0.7v5.4H60V39.1h0.9V43.7z"/>
			</g>
			<g>
				<path fill="#EDE7F6" d="M92.1,46.4c0,0.6-0.1,1.1-0.2,1.6s-0.3,0.9-0.6,1.3s-0.6,0.6-1,0.8c-0.4,0.2-0.8,0.3-1.3,0.3
					c-0.6,0-1.1-0.1-1.5-0.3s-0.8-0.5-1-0.9l0,1.1h-0.8V39.1h0.9v4.5c0.3-0.4,0.6-0.7,1-1c0.4-0.2,0.9-0.3,1.5-0.3
					c0.5,0,0.9,0.1,1.3,0.3c0.4,0.2,0.7,0.5,1,0.8c0.3,0.4,0.5,0.8,0.6,1.3c0.1,0.5,0.2,1,0.2,1.7V46.4z M91.3,46.3
					c0-0.5,0-0.9-0.1-1.3c-0.1-0.4-0.2-0.7-0.4-1s-0.4-0.5-0.7-0.7C89.7,43.1,89.4,43,89,43c-0.3,0-0.6,0-0.9,0.1
					c-0.3,0.1-0.5,0.2-0.7,0.4c-0.2,0.2-0.3,0.3-0.5,0.5c-0.1,0.2-0.2,0.4-0.3,0.6v3.6c0.1,0.2,0.2,0.4,0.3,0.6
					c0.1,0.2,0.3,0.3,0.5,0.5s0.4,0.2,0.7,0.3c0.2,0.1,0.5,0.1,0.8,0.1c0.4,0,0.7-0.1,1-0.2s0.5-0.4,0.7-0.7s0.3-0.6,0.4-1
					c0.1-0.4,0.1-0.8,0.1-1.3V46.3z"/>
				<path fill="#EDE7F6" d="M96.5,49l2.3-6.7h0.9l-3.3,9.2c-0.1,0.2-0.2,0.4-0.3,0.6c-0.1,0.2-0.2,0.4-0.4,0.6s-0.4,0.4-0.6,0.5
					c-0.3,0.1-0.6,0.2-0.9,0.2c0,0-0.1,0-0.2,0c-0.1,0-0.1,0-0.2,0s-0.1,0-0.2,0c-0.1,0-0.1,0-0.1,0l0-0.7c0.1,0,0.1,0,0.2,0
					c0.1,0,0.2,0,0.2,0c0.2,0,0.4,0,0.6-0.1c0.2-0.1,0.3-0.2,0.5-0.3c0.1-0.1,0.3-0.3,0.4-0.4s0.2-0.4,0.3-0.6l0.4-1l-3-7.8h1
					L96.5,49z"/>
			</g>
			<g>
				<path fill="#EDE7F6" d="M107,42.4c-1.5,0-2.2,0.5-2.2,1.6c0,0.5,0.2,0.9,0.5,1.1c0.3,0.2,1,0.4,2,0.6c1.1,0.2,1.8,0.4,2.2,0.7
					c0.4,0.3,0.6,0.8,0.6,1.6c0,0.8-0.3,1.4-0.8,1.8c-0.5,0.4-1.3,0.6-2.3,0.6c-0.6,0-1.3-0.1-2.2-0.2l-0.5-0.1l0.1-0.5
					c1.2,0.2,2.1,0.3,2.8,0.3c0.7,0,1.3-0.1,1.7-0.4c0.4-0.3,0.6-0.7,0.6-1.4c0-0.7-0.2-1.1-0.5-1.3c-0.3-0.2-1-0.4-2.1-0.5
					c-1-0.2-1.8-0.4-2.2-0.6c-0.4-0.3-0.6-0.7-0.6-1.4c0-0.6,0.1-1.1,0.4-1.5c0.3-0.3,0.6-0.6,1-0.7c0.4-0.1,0.8-0.2,1.2-0.2
					c0.9,0,1.7,0.1,2.5,0.2l0.4,0.1l0,0.5C108.7,42.5,107.8,42.4,107,42.4"/>
				<path fill="#EDE7F6" d="M111.8,50.2h-0.6v-12h0.6v4.3c1-0.4,2-0.6,3-0.6c1,0,1.7,0.3,2.1,0.8c0.3,0.6,0.5,1.6,0.5,3.3v4.3h-0.6
					V46c0-1.4-0.1-2.4-0.4-2.9c-0.3-0.5-0.8-0.7-1.7-0.7c-0.4,0-0.9,0.1-1.4,0.2c-0.5,0.1-0.8,0.2-1.1,0.3l-0.4,0.2V50.2z"/>
				<path fill="#EDE7F6" d="M119.3,42.8c0.5-0.6,1.4-0.9,2.6-0.9c1.2,0,2.1,0.3,2.6,0.9c0.5,0.6,0.8,1.7,0.8,3.3
					c0,1.6-0.2,2.7-0.7,3.3c-0.4,0.6-1.3,0.9-2.7,0.9c-1.3,0-2.2-0.3-2.7-0.9c-0.4-0.6-0.7-1.7-0.7-3.3
					C118.6,44.5,118.8,43.4,119.3,42.8 M120.5,49.7c0.4,0.1,0.8,0.2,1.5,0.2c0.6,0,1.1-0.1,1.5-0.2c0.4-0.1,0.6-0.4,0.8-0.7
					c0.2-0.3,0.3-0.7,0.4-1.2c0.1-0.4,0.1-1,0.1-1.8c0-1.4-0.2-2.3-0.6-2.8c-0.4-0.5-1.1-0.8-2.2-0.8c-1.1,0-1.8,0.3-2.1,0.8
					c-0.4,0.5-0.6,1.4-0.6,2.8c0,0.8,0,1.4,0.1,1.8c0.1,0.4,0.2,0.8,0.4,1.2C119.8,49.3,120.1,49.5,120.5,49.7"/>
				<path fill="#EDE7F6" d="M126.5,54V42h0.6v0.7c0.3-0.2,0.8-0.4,1.3-0.6c0.6-0.2,1.1-0.3,1.5-0.3c1,0,1.7,0.3,2.1,1
					c0.4,0.7,0.7,1.7,0.7,3.2c0,1.5-0.3,2.6-0.8,3.2c-0.5,0.7-1.4,1-2.7,1c-0.7,0-1.5-0.1-2.2-0.2V54H126.5z M130,42.4
					c-0.4,0-0.9,0.1-1.3,0.2c-0.5,0.1-0.8,0.3-1.1,0.4l-0.4,0.2v6.4c0.8,0.2,1.6,0.2,2.2,0.2c1.1,0,1.8-0.3,2.2-0.9
					c0.4-0.6,0.6-1.5,0.6-2.9c0-1.3-0.2-2.3-0.5-2.8C131.2,42.7,130.7,42.4,130,42.4"/>
				<path fill="#EDE7F6" d="M141.2,51.3c0,0.9-0.4,1.6-1.1,2.1c-0.7,0.4-1.7,0.7-2.9,0.7c-1.2,0-2.2-0.2-2.8-0.5
					c-0.7-0.3-1-0.9-1-1.8c0-0.7,0.4-1.3,1.2-2c-0.4-0.3-0.6-0.7-0.6-1.2c0-0.2,0.2-0.6,0.5-1.1l0.1-0.2c-0.7-0.5-1.1-1.3-1.1-2.4
					c0-1,0.3-1.8,0.9-2.3c0.6-0.5,1.5-0.7,2.5-0.7c0.5,0,0.9,0.1,1.4,0.2l0.3,0l2.6-0.1v1.8l-1.2-0.1c0.2,0.4,0.4,0.7,0.4,1.1
					c0,1.1-0.3,1.8-0.8,2.3c-0.6,0.4-1.4,0.6-2.6,0.6c-0.3,0-0.5,0-0.7-0.1c-0.1,0.3-0.2,0.5-0.2,0.7c0,0.2,0.1,0.3,0.3,0.4
					c0.2,0.1,0.6,0.1,1.3,0.1c1.4,0,2.3,0.2,2.8,0.5C140.9,49.7,141.2,50.3,141.2,51.3 M135.5,51.5c0,0.5,0.6,0.7,1.7,0.7
					c1.2,0,1.7-0.3,1.7-0.8c0-0.3-0.1-0.5-0.3-0.6c-0.2-0.1-0.6-0.1-1.2-0.1l-1.5-0.1C135.7,50.9,135.5,51.2,135.5,51.5 M135.6,44.8
					c0,0.8,0.4,1.2,1.3,1.2c0.8,0,1.3-0.4,1.3-1.2c0-0.8-0.4-1.2-1.3-1.2C136.1,43.6,135.6,44,135.6,44.8"/>
				<path fill="#EDE7F6" d="M142,43c0.6-0.7,1.5-1.1,2.9-1.1c1.4,0,2.3,0.4,2.9,1.1c0.6,0.7,0.9,1.8,0.9,3.2c0,2.9-1.3,4.3-3.8,4.3
					c-2.5,0-3.8-1.4-3.8-4.3C141.1,44.8,141.4,43.7,142,43 M143.7,48c0.2,0.4,0.6,0.6,1.2,0.6c0.6,0,1-0.2,1.2-0.6
					c0.2-0.4,0.3-1,0.3-1.9c0-0.8-0.1-1.5-0.3-1.8c-0.2-0.4-0.6-0.6-1.2-0.6c-0.6,0-1,0.2-1.2,0.6c-0.2,0.4-0.3,1-0.3,1.8
					C143.3,47,143.4,47.6,143.7,48"/>
			</g>
			<path fill="#EDE7F6" d="M81.4,43.7c0,0.9-0.4,1.8-1.1,2.4h0l-3.5,3.5c-0.4,0.4-0.7,0.7-1.1,0.7s-0.7-0.4-1.1-0.7l-3.5-3.5h0
				c-0.6-0.6-1.1-1.4-1.1-2.4c0-1.8,1.4-3.2,3.2-3.2c0.9,0,1.8,0.4,2.4,1.1c0.6-0.6,1.4-1.1,2.4-1.1C80,40.5,81.4,41.9,81.4,43.7z"
				/>
		</g>
		<g>
			<path fill="#EDE7F6" d="M36.7,7.9c-1.7,0-3.1,0.7-4.1,2.1c-1,1.4-1.5,3.4-1.5,5.9c0,5.2,2,7.8,5.9,7.8c1.2,0,2.4-0.2,3.5-0.5
				c1.1-0.3,2.2-0.7,3.4-1.2v3.3c0,1.8-1.2,3.5-3,3.9c-1.5,0.3-3,0.5-4.7,0.5c-4.1,0-7.2-1.2-9.4-3.5c-2.2-2.4-3.3-5.8-3.3-10.2
				c0-2.8,0.5-5.2,1.6-7.4c1.1-2.1,2.6-3.7,4.5-4.9c2-1.1,4.3-1.7,7-1.7c2.9,0,5.7,0.6,8.4,1.9l-1,2.6c-0.6,1.7-2.5,2.5-4.2,1.9
				c0,0,0,0,0,0C38.9,8.1,37.8,7.9,36.7,7.9z"/>
			<path fill="#EDE7F6" d="M47.3,3.2c0-1.1,0.3-1.9,0.9-2.4C48.8,0.3,49.8,0,51.1,0c1.3,0,2.3,0.3,2.9,0.8C54.7,1.4,55,2.2,55,3.2
				c0,2.1-1.3,3.2-3.9,3.2C48.6,6.4,47.3,5.3,47.3,3.2z M50.3,29.7h-2.8V12.5c0-2.3,1.8-4.1,4.1-4.1h3.1v16.9
				C54.7,27.8,52.7,29.7,50.3,29.7z"/>
			<path fill="#EDE7F6" d="M123.7,22.9c0,2.2-0.8,3.9-2.3,5.1c-1.5,1.1-3.7,1.7-6.6,1.7c-1.6,0-2.9-0.1-4-0.2c0,0,0,0,0,0
				c-2-0.3-3.5-2.1-3.5-4.2v-2.5c1.1,0.5,2.3,0.9,3.7,1.2c1.3,0.3,2.5,0.5,3.6,0.5c1.6,0,2.3-0.4,2.3-1.1c0-0.4-0.2-0.7-0.7-1
				c-0.4-0.3-1.7-0.9-3.8-1.7c-1.9-0.8-3.3-1.7-4-2.7c-0.8-1-1.1-2.3-1.1-3.8c0-1.9,0.8-3.5,2.3-4.5c1.5-1.1,3.6-1.6,6.4-1.6
				c1.4,0,2.7,0.2,3.9,0.5c1.2,0.3,2.5,0.7,3.8,1.3l-0.6,1.5c-0.7,1.7-2.6,2.5-4.3,2c0,0,0,0,0,0c-1.1-0.3-1.9-0.5-2.6-0.5
				c-1.2,0-1.8,0.3-1.8,0.9c0,0.4,0.2,0.7,0.6,0.9c0.4,0.3,1.6,0.8,3.6,1.5c1.5,0.6,2.6,1.2,3.3,1.8c0.7,0.6,1.2,1.3,1.6,2
				C123.5,20.8,123.7,21.8,123.7,22.9z"/>
			<path fill="#EDE7F6" d="M68.7,8.7H67V4.4h-5l-1.8,4.3l-0.7,0.5C57.9,10.3,57,12,57,13.8v0h2.4v8.6c0,2.5,0.5,4.3,1.6,5.5
				c1.1,1.2,2.8,1.8,5.2,1.8c1.2,0,2.2-0.1,3.1-0.3c0,0,0,0,0,0c1.6-0.3,2.8-1.8,2.8-3.5v-2.7c-1.4,0.5-2.4,0.7-3.4,0.7
				c-1.3,0-1.8-0.7-1.8-2v-8.1h2.3c-0.4-1.4-0.6-3-0.6-4.6C68.6,9.1,68.6,8.7,68.7,8.7z"/>
			<path fill="#EDE7F6" d="M104.8,17.6c0-3.1-0.9-5.5-2.6-7.1c-1.7-1.6-4.2-2.5-7.3-2.5c-1.2,0-2.3,0.1-3.3,0.4c0,0.2,0,0.5,0,0.7
				c0,5.6-3,11.6-5.6,15.9c0.4,0.7,0.9,1.3,1.5,1.9c1.9,1.9,4.6,2.8,8.1,2.8c1.7,0,3.1-0.1,4.3-0.3c0,0,0,0,0,0
				c2-0.4,3.5-2.2,3.5-4.2V23c-0.9,0.6-2.4,1-3.5,1.2c-1.1,0.2-2.2,0.4-3.5,0.4c-1.4,0-2.5-0.3-3.3-0.9c-0.8-0.7-1.2-1.7-1.3-2.7
				h9.6C103.3,21,104.8,19.5,104.8,17.6L104.8,17.6z M92,16.2c0.1-0.9,0.4-2,1-2.5c0.6-0.5,1.3-0.8,2.1-0.8c0.9,0,1.7,0.3,2.2,0.9
				c0.5,0.6,0.8,1.4,0.9,2.4H92z"/>
			<path fill="#EDE7F6" d="M80.1,0c-5.1,0-9.2,4.1-9.2,9.2c0,9.2,9.2,20.2,9.2,20.2s9.2-11,9.2-20.2C89.3,4.1,85.2,0,80.1,0z
				 M80.1,14.8c-3.1,0-5.6-2.5-5.6-5.6c0-3.1,2.5-5.6,5.6-5.6c3.1,0,5.6,2.5,5.6,5.6C85.7,12.3,83.2,14.8,80.1,14.8z M76.6,9.2
				c0,2,1.6,3.6,3.6,3.6c2,0,3.6-1.6,3.6-3.6s-1.6-3.6-3.6-3.6C78.1,5.6,76.6,7.2,76.6,9.2z"/>
		</g>
	</g>
</g>
</svg>
