<?xml version="1.0" encoding="utf-8"?>
<!-- Generator: Adobe Illustrator 17.1.0, SVG Export Plug-In . SVG Version: 6.00 Build 0)  -->
<!DOCTYPE svg PUBLIC "-//W3C//DTD SVG 1.1//EN" "http://www.w3.org/Graphics/SVG/1.1/DTD/svg11.dtd">
<svg version="1.1" id="Layer_1" xmlns="http://www.w3.org/2000/svg" xmlns:xlink="http://www.w3.org/1999/xlink" x="0px" y="0px"
	 viewBox="0 0 176.5 30" enable-background="new 0 0 176.5 30" xml:space="preserve">
<g>
	<g>
		<g>
			<path fill="#EDE7F6" d="M120,14.2c-2,0-3,0.7-3,2.2c0,0.7,0.2,1.2,0.6,1.5c0.4,0.3,1.3,0.5,2.8,0.8c1.4,0.2,2.4,0.5,3,0.9
				c0.6,0.4,0.8,1.1,0.8,2.2c0,1.1-0.4,1.9-1.1,2.5c-0.7,0.5-1.8,0.8-3.2,0.8c-0.8,0-1.8-0.1-3-0.3l-0.6-0.1l0.1-0.7
				c1.6,0.3,2.9,0.4,3.8,0.4c1,0,1.7-0.2,2.3-0.6c0.6-0.4,0.9-1,0.9-1.9c0-0.9-0.2-1.5-0.7-1.8c-0.5-0.3-1.4-0.5-2.8-0.7
				c-1.4-0.2-2.4-0.5-2.9-0.9c-0.5-0.4-0.8-1-0.8-1.8c0-0.9,0.2-1.5,0.6-2c0.4-0.5,0.9-0.8,1.4-0.9c0.5-0.2,1.1-0.2,1.7-0.2
				c1.2,0,2.3,0.1,3.4,0.2l0.6,0.1l0,0.7C122.3,14.4,121,14.2,120,14.2"/>
			<path fill="#EDE7F6" d="M126.5,24.9h-0.8V8.6h0.8v5.8c1.3-0.6,2.7-0.9,4-0.9c1.4,0,2.3,0.4,2.8,1.1c0.5,0.8,0.7,2.2,0.7,4.4v5.8
				h-0.8v-5.7c0-2-0.2-3.3-0.5-3.9c-0.4-0.6-1.1-1-2.3-1c-0.6,0-1.2,0.1-1.9,0.2c-0.6,0.1-1.1,0.3-1.5,0.4l-0.5,0.2V24.9z"/>
			<path fill="#EDE7F6" d="M136.7,14.8c0.7-0.8,1.8-1.2,3.5-1.2c1.6,0,2.8,0.4,3.5,1.2c0.7,0.8,1,2.3,1,4.5c0,2.2-0.3,3.7-0.9,4.5
				c-0.6,0.8-1.8,1.3-3.6,1.3c-1.8,0-3-0.4-3.6-1.3c-0.6-0.8-0.9-2.4-0.9-4.5C135.7,17.1,136,15.6,136.7,14.8 M138.2,24.1
				c0.5,0.2,1.1,0.3,2,0.3c0.8,0,1.5-0.1,2-0.3c0.5-0.2,0.9-0.5,1.1-1c0.3-0.5,0.4-1,0.5-1.6c0.1-0.6,0.1-1.4,0.1-2.5
				c0-1.9-0.3-3.1-0.8-3.8c-0.5-0.7-1.5-1-2.9-1c-1.4,0-2.4,0.3-2.9,1c-0.5,0.7-0.8,2-0.8,3.8c0,1.1,0,1.9,0.1,2.5
				c0.1,0.6,0.2,1.1,0.5,1.6C137.4,23.6,137.8,23.9,138.2,24.1"/>
			<path fill="#EDE7F6" d="M146.5,30V13.7h0.8v0.9c0.4-0.3,1-0.5,1.8-0.8c0.8-0.2,1.5-0.4,2-0.4c1.3,0,2.3,0.5,2.9,1.4
				c0.6,0.9,0.9,2.4,0.9,4.4c0,2-0.4,3.5-1.1,4.4c-0.7,0.9-1.9,1.4-3.6,1.4c-1,0-2-0.1-2.9-0.3V30H146.5z M151.1,14.2
				c-0.6,0-1.2,0.1-1.8,0.3c-0.6,0.2-1.1,0.4-1.5,0.6l-0.5,0.3V24c1.1,0.2,2.1,0.3,2.9,0.3c1.4,0,2.4-0.4,3-1.2
				c0.6-0.8,0.9-2.1,0.9-3.9c0-1.8-0.2-3.1-0.7-3.9C152.9,14.6,152.1,14.2,151.1,14.2"/>
			<path fill="#EDE7F6" d="M166.4,26.3c0,1.3-0.5,2.2-1.5,2.8c-1,0.6-2.3,0.9-4,0.9c-1.7,0-3-0.2-3.9-0.7c-0.9-0.4-1.3-1.3-1.3-2.4
				c0-0.9,0.5-1.8,1.6-2.7c-0.5-0.4-0.8-0.9-0.8-1.7c0-0.3,0.2-0.8,0.7-1.5l0.2-0.3c-1-0.7-1.5-1.8-1.5-3.2c0-1.4,0.4-2.4,1.3-3.1
				c0.9-0.6,2-1,3.4-1c0.6,0,1.3,0.1,1.9,0.2l0.4,0.1l3.6-0.1v2.4l-1.7-0.1c0.3,0.5,0.5,1,0.5,1.5c0,1.5-0.4,2.5-1.1,3.1
				c-0.8,0.6-1.9,0.8-3.6,0.8c-0.3,0-0.6,0-0.9-0.1c-0.1,0.4-0.2,0.7-0.2,0.9c0,0.2,0.1,0.4,0.4,0.5c0.3,0.1,0.8,0.1,1.8,0.2
				c1.9,0,3.1,0.3,3.8,0.7C166,24.1,166.4,25,166.4,26.3 M158.6,26.6c0,0.6,0.8,1,2.3,1c1.6,0,2.4-0.4,2.4-1.1
				c0-0.4-0.1-0.7-0.4-0.8c-0.3-0.1-0.8-0.2-1.7-0.2l-2-0.2C158.8,25.7,158.6,26.1,158.6,26.6 M158.8,17.5c0,1.1,0.6,1.6,1.7,1.6
				c1.1,0,1.7-0.5,1.7-1.6c0-1.1-0.6-1.6-1.7-1.6C159.4,15.8,158.8,16.4,158.8,17.5"/>
			<path fill="#EDE7F6" d="M167.4,15c0.8-1,2.1-1.5,3.9-1.5c1.8,0,3.2,0.5,3.9,1.5c0.8,1,1.2,2.4,1.2,4.3c0,3.9-1.7,5.9-5.1,5.9
				c-3.4,0-5.1-2-5.1-5.9C166.2,17.4,166.6,16,167.4,15 M169.7,21.8c0.3,0.5,0.8,0.8,1.6,0.8c0.8,0,1.3-0.3,1.6-0.8
				c0.3-0.5,0.5-1.4,0.5-2.5c0-1.1-0.2-2-0.5-2.5c-0.3-0.5-0.9-0.8-1.6-0.8c-0.8,0-1.3,0.3-1.6,0.8c-0.3,0.5-0.5,1.4-0.5,2.5
				C169.3,20.4,169.4,21.3,169.7,21.8"/>
		</g>
		<g>
			<path fill="#EDE7F6" d="M99.9,19.1c0,4.2-0.9,6-5.1,6c-1.5,0-3.3-0.2-3.3-0.2V8.6h0.8v5.8c0,0,1.9-0.9,3.8-0.9
				C99.1,13.5,99.9,15.3,99.9,19.1z M99.1,19.1c0-3.3-0.5-4.9-3-4.9c-2,0-3.8,0.9-3.8,0.9v9.1c0,0,1.7,0.1,2.5,0.1
				C98.5,24.3,99.1,22.7,99.1,19.1z"/>
			<path fill="#EDE7F6" d="M101.1,13.7l3.3,10.5h0.9l3.3-10.5h0.8L104.3,30h-0.8l1.6-5.1h-1.4l-3.5-11.2H101.1z"/>
		</g>
	</g>
	<g>
		<path fill="#EDE7F6" d="M11.1,6.7c-1.5,0-2.6,0.6-3.5,1.8c-0.8,1.2-1.2,2.9-1.2,5c0,4.4,1.7,6.6,5,6.6c1,0,2-0.1,3-0.4
			c1-0.3,1.9-0.6,2.9-1V21c0,1.9-1.3,3.6-3.2,3.9c-1,0.2-2.1,0.3-3.3,0.3c-3.5,0-6.1-1-8-3c-1.8-2-2.8-4.9-2.8-8.7
			c0-2.4,0.4-4.5,1.3-6.3c0.9-1.8,2.2-3.2,3.9-4.2c1.7-1,3.7-1.5,5.9-1.5c2.5,0,4.8,0.5,7.1,1.6l-0.9,2.2c-0.5,1.4-2.1,2.1-3.5,1.6
			c0,0,0,0,0,0C12.9,6.9,12,6.7,11.1,6.7z"/>
		<path fill="#EDE7F6" d="M20.1,2.7c0-0.9,0.3-1.6,0.8-2.1C21.4,0.2,22.2,0,23.3,0c1.1,0,2,0.2,2.5,0.7c0.5,0.5,0.8,1.1,0.8,2
			c0,1.8-1.1,2.7-3.3,2.7C21.2,5.4,20.1,4.5,20.1,2.7z M22.7,25.3h-2.4V10.7c0-1.9,1.6-3.5,3.5-3.5h2.6v14.4
			C26.4,23.6,24.7,25.3,22.7,25.3z"/>
		<path fill="#EDE7F6" d="M85,19.5c0,1.9-0.6,3.3-1.9,4.3c-1.3,1-3.2,1.5-5.6,1.5c-1.3,0-2.5-0.1-3.4-0.2c0,0,0,0,0,0
			c-1.7-0.3-3-1.8-3-3.5v-2.1c1,0.4,2,0.8,3.1,1c1.1,0.3,2.1,0.4,3,0.4c1.3,0,2-0.3,2-0.9c0-0.3-0.2-0.6-0.6-0.8
			c-0.4-0.2-1.5-0.7-3.2-1.4c-1.6-0.7-2.8-1.4-3.4-2.3c-0.6-0.9-1-1.9-1-3.2c0-1.7,0.6-2.9,1.9-3.9c1.3-0.9,3.1-1.4,5.4-1.4
			c1.2,0,2.3,0.1,3.3,0.4c1,0.3,2.1,0.6,3.2,1.1l-0.6,1.3c-0.6,1.4-2.2,2.1-3.7,1.7c0,0,0,0,0,0C79.7,11.1,79,11,78.4,11
			c-1,0-1.5,0.2-1.5,0.7c0,0.3,0.2,0.6,0.5,0.8c0.4,0.2,1.4,0.7,3,1.3c1.2,0.5,2.2,1,2.8,1.5c0.6,0.5,1.1,1.1,1.3,1.7
			C84.9,17.7,85,18.5,85,19.5z"/>
		<path fill="#EDE7F6" d="M38.3,7.4h-1.4V3.8h-4.3l-1.5,3.7l-0.6,0.4c-1.3,0.9-2,2.4-2,3.9v0h2v7.3c0,2.1,0.5,3.6,1.4,4.7
			c0.9,1,2.4,1.5,4.5,1.5c1,0,1.9-0.1,2.6-0.2c0,0,0,0,0,0c1.4-0.3,2.4-1.5,2.4-3v-2.3c-1.2,0.4-2,0.6-2.9,0.6
			c-1.1,0-1.6-0.6-1.6-1.7v-6.9h1.9c-0.3-1.2-0.5-2.6-0.5-3.9C38.2,7.7,38.2,7.4,38.3,7.4z"/>
		<path fill="#EDE7F6" d="M69,15c0-2.6-0.7-4.6-2.2-6s-3.5-2.1-6.2-2.1c-1,0-2,0.1-2.8,0.3c0,0.2,0,0.4,0,0.6
			c0,4.7-2.5,9.9-4.8,13.5c0.3,0.6,0.8,1.1,1.2,1.6c1.6,1.6,3.9,2.4,6.9,2.4c1.4,0,2.6-0.1,3.7-0.3c0,0,0,0,0,0
			c1.7-0.3,2.9-1.9,2.9-3.6v-1.8c-0.8,0.5-2,0.8-2.9,1c-0.9,0.2-1.9,0.3-3,0.3c-1.2,0-2.1-0.2-2.8-0.8c-0.7-0.6-1-1.5-1.1-2.3h8.2
			C67.7,17.8,69,16.6,69,15L69,15z M58.1,13.8c0.1-0.8,0.4-1.7,0.9-2.1c0.5-0.5,1.1-0.7,1.8-0.7c0.8,0,1.4,0.2,1.9,0.7
			c0.5,0.5,0.7,1.2,0.7,2H58.1z"/>
		<path fill="#EDE7F6" d="M48,0c-4.3,0-7.8,3.5-7.8,7.8c0,7.8,7.8,17.1,7.8,17.1s7.8-9.4,7.8-17.1C55.8,3.5,52.3,0,48,0z M48,12.6
			c-2.6,0-4.8-2.1-4.8-4.8C43.2,5.2,45.4,3,48,3c2.6,0,4.8,2.1,4.8,4.8C52.8,10.4,50.6,12.6,48,12.6z M45,7.8c0,1.7,1.4,3,3,3
			c1.7,0,3-1.4,3-3s-1.4-3-3-3C46.3,4.8,45,6.1,45,7.8z"/>
	</g>
</g>
</svg>
