<?xml version="1.0" encoding="UTF-8" standalone="no"?>
<!-- Generator: Adobe Illustrator 17.1.0, SVG Export Plug-In . SVG Version: 6.00 Build 0)  -->

<svg
   xmlns:dc="http://purl.org/dc/elements/1.1/"
   xmlns:cc="http://creativecommons.org/ns#"
   xmlns:rdf="http://www.w3.org/1999/02/22-rdf-syntax-ns#"
   xmlns:svg="http://www.w3.org/2000/svg"
   xmlns="http://www.w3.org/2000/svg"
   xmlns:sodipodi="http://sodipodi.sourceforge.net/DTD/sodipodi-0.dtd"
   xmlns:inkscape="http://www.inkscape.org/namespaces/inkscape"
   version="1.1"
   id="Layer_1"
   x="0px"
   y="0px"
   viewBox="0 0 176.5 30"
   enable-background="new 0 0 176.5 30"
   xml:space="preserve"
   inkscape:version="0.48.5 r10040"
   width="100%"
   height="100%"
   sodipodi:docname="shopgo-cities-white.svg"><metadata
     id="metadata45"><rdf:RDF><cc:Work
         rdf:about=""><dc:format>image/svg+xml</dc:format><dc:type
           rdf:resource="http://purl.org/dc/dcmitype/StillImage" /></cc:Work></rdf:RDF></metadata><defs
     id="defs43" /><sodipodi:namedview
     pagecolor="#ffffff"
     bordercolor="#666666"
     borderopacity="1"
     objecttolerance="10"
     gridtolerance="10"
     guidetolerance="10"
     inkscape:pageopacity="0"
     inkscape:pageshadow="2"
     inkscape:window-width="640"
     inkscape:window-height="480"
     id="namedview41"
     showgrid="false"
     inkscape:zoom="2.1756374"
     inkscape:cx="153.8983"
     inkscape:cy="15"
     inkscape:window-x="0"
     inkscape:window-y="0"
     inkscape:window-maximized="0"
     inkscape:current-layer="g3" /><g
     id="g3"><g
       id="g5"
       transform="translate(0,-2)"
       style="fill:#ffffff"><g
         id="g7"
         style="fill:#ffffff"><path
           d="m 120,14.2 c -2,0 -3,0.7 -3,2.2 0,0.7 0.2,1.2 0.6,1.5 0.4,0.3 1.3,0.5 2.8,0.8 1.4,0.2 2.4,0.5 3,0.9 0.6,0.4 0.8,1.1 0.8,2.2 0,1.1 -0.4,1.9 -1.1,2.5 -0.7,0.5 -1.8,0.8 -3.2,0.8 -0.8,0 -1.8,-0.1 -3,-0.3 l -0.6,-0.1 0.1,-0.7 c 1.6,0.3 2.9,0.4 3.8,0.4 1,0 1.7,-0.2 2.3,-0.6 0.6,-0.4 0.9,-1 0.9,-1.9 0,-0.9 -0.2,-1.5 -0.7,-1.8 -0.5,-0.3 -1.4,-0.5 -2.8,-0.7 -1.4,-0.2 -2.4,-0.5 -2.9,-0.9 -0.5,-0.4 -0.8,-1 -0.8,-1.8 0,-0.9 0.2,-1.5 0.6,-2 0.4,-0.5 0.9,-0.8 1.4,-0.9 0.5,-0.2 1.1,-0.2 1.7,-0.2 1.2,0 2.3,0.1 3.4,0.2 l 0.6,0.1 0,0.7 C 122.3,14.4 121,14.2 120,14.2"
           id="path9"
           inkscape:connector-curvature="0"
           style="fill:#ffffff" /><path
           d="m 126.5,24.9 h -0.8 V 8.6 h 0.8 v 5.8 c 1.3,-0.6 2.7,-0.9 4,-0.9 1.4,0 2.3,0.4 2.8,1.1 0.5,0.8 0.7,2.2 0.7,4.4 v 5.8 h -0.8 v -5.7 c 0,-2 -0.2,-3.3 -0.5,-3.9 -0.4,-0.6 -1.1,-1 -2.3,-1 -0.6,0 -1.2,0.1 -1.9,0.2 -0.6,0.1 -1.1,0.3 -1.5,0.4 l -0.5,0.2 v 9.9 z"
           id="path11"
           inkscape:connector-curvature="0"
           style="fill:#ffffff" /><path
           d="m 136.7,14.8 c 0.7,-0.8 1.8,-1.2 3.5,-1.2 1.6,0 2.8,0.4 3.5,1.2 0.7,0.8 1,2.3 1,4.5 0,2.2 -0.3,3.7 -0.9,4.5 -0.6,0.8 -1.8,1.3 -3.6,1.3 -1.8,0 -3,-0.4 -3.6,-1.3 -0.6,-0.8 -0.9,-2.4 -0.9,-4.5 0,-2.2 0.3,-3.7 1,-4.5 m 1.5,9.3 c 0.5,0.2 1.1,0.3 2,0.3 0.8,0 1.5,-0.1 2,-0.3 0.5,-0.2 0.9,-0.5 1.1,-1 0.3,-0.5 0.4,-1 0.5,-1.6 0.1,-0.6 0.1,-1.4 0.1,-2.5 0,-1.9 -0.3,-3.1 -0.8,-3.8 -0.5,-0.7 -1.5,-1 -2.9,-1 -1.4,0 -2.4,0.3 -2.9,1 -0.5,0.7 -0.8,2 -0.8,3.8 0,1.1 0,1.9 0.1,2.5 0.1,0.6 0.2,1.1 0.5,1.6 0.3,0.5 0.7,0.8 1.1,1"
           id="path13"
           inkscape:connector-curvature="0"
           style="fill:#ffffff" /><path
           d="M 146.5,30 V 13.7 h 0.8 v 0.9 c 0.4,-0.3 1,-0.5 1.8,-0.8 0.8,-0.2 1.5,-0.4 2,-0.4 1.3,0 2.3,0.5 2.9,1.4 0.6,0.9 0.9,2.4 0.9,4.4 0,2 -0.4,3.5 -1.1,4.4 -0.7,0.9 -1.9,1.4 -3.6,1.4 -1,0 -2,-0.1 -2.9,-0.3 V 30 h -0.8 z m 4.6,-15.8 c -0.6,0 -1.2,0.1 -1.8,0.3 -0.6,0.2 -1.1,0.4 -1.5,0.6 l -0.5,0.3 V 24 c 1.1,0.2 2.1,0.3 2.9,0.3 1.4,0 2.4,-0.4 3,-1.2 0.6,-0.8 0.9,-2.1 0.9,-3.9 0,-1.8 -0.2,-3.1 -0.7,-3.9 -0.5,-0.7 -1.3,-1.1 -2.3,-1.1"
           id="path15"
           inkscape:connector-curvature="0"
           style="fill:#ffffff" /><path
           d="m 166.4,26.3 c 0,1.3 -0.5,2.2 -1.5,2.8 -1,0.6 -2.3,0.9 -4,0.9 -1.7,0 -3,-0.2 -3.9,-0.7 -0.9,-0.4 -1.3,-1.3 -1.3,-2.4 0,-0.9 0.5,-1.8 1.6,-2.7 -0.5,-0.4 -0.8,-0.9 -0.8,-1.7 0,-0.3 0.2,-0.8 0.7,-1.5 l 0.2,-0.3 c -1,-0.7 -1.5,-1.8 -1.5,-3.2 0,-1.4 0.4,-2.4 1.3,-3.1 0.9,-0.6 2,-1 3.4,-1 0.6,0 1.3,0.1 1.9,0.2 l 0.4,0.1 3.6,-0.1 V 16 l -1.7,-0.1 c 0.3,0.5 0.5,1 0.5,1.5 0,1.5 -0.4,2.5 -1.1,3.1 -0.8,0.6 -1.9,0.8 -3.6,0.8 -0.3,0 -0.6,0 -0.9,-0.1 -0.1,0.4 -0.2,0.7 -0.2,0.9 0,0.2 0.1,0.4 0.4,0.5 0.3,0.1 0.8,0.1 1.8,0.2 1.9,0 3.1,0.3 3.8,0.7 0.5,0.6 0.9,1.5 0.9,2.8 m -7.8,0.3 c 0,0.6 0.8,1 2.3,1 1.6,0 2.4,-0.4 2.4,-1.1 0,-0.4 -0.1,-0.7 -0.4,-0.8 -0.3,-0.1 -0.8,-0.2 -1.7,-0.2 l -2,-0.2 c -0.4,0.4 -0.6,0.8 -0.6,1.3 m 0.2,-9.1 c 0,1.1 0.6,1.6 1.7,1.6 1.1,0 1.7,-0.5 1.7,-1.6 0,-1.1 -0.6,-1.6 -1.7,-1.6 -1.1,-0.1 -1.7,0.5 -1.7,1.6"
           id="path17"
           inkscape:connector-curvature="0"
           style="fill:#ffffff" /><path
           d="m 167.4,15 c 0.8,-1 2.1,-1.5 3.9,-1.5 1.8,0 3.2,0.5 3.9,1.5 0.8,1 1.2,2.4 1.2,4.3 0,3.9 -1.7,5.9 -5.1,5.9 -3.4,0 -5.1,-2 -5.1,-5.9 0,-1.9 0.4,-3.3 1.2,-4.3 m 2.3,6.8 c 0.3,0.5 0.8,0.8 1.6,0.8 0.8,0 1.3,-0.3 1.6,-0.8 0.3,-0.5 0.5,-1.4 0.5,-2.5 0,-1.1 -0.2,-2 -0.5,-2.5 -0.3,-0.5 -0.9,-0.8 -1.6,-0.8 -0.8,0 -1.3,0.3 -1.6,0.8 -0.3,0.5 -0.5,1.4 -0.5,2.5 0.1,1.1 0.2,2 0.5,2.5"
           id="path19"
           inkscape:connector-curvature="0"
           style="fill:#ffffff" /></g><g
         id="g21"
         style="fill:#ffffff"><path
           d="m 99.9,19.1 c 0,4.2 -0.9,6 -5.1,6 -1.5,0 -3.3,-0.2 -3.3,-0.2 V 8.6 h 0.8 v 5.8 c 0,0 1.9,-0.9 3.8,-0.9 3,0 3.8,1.8 3.8,5.6 z m -0.8,0 c 0,-3.3 -0.5,-4.9 -3,-4.9 -2,0 -3.8,0.9 -3.8,0.9 v 9.1 c 0,0 1.7,0.1 2.5,0.1 3.7,0 4.3,-1.6 4.3,-5.2 z"
           id="path23"
           inkscape:connector-curvature="0"
           style="fill:#ffffff" /><path
           d="m 101.1,13.7 3.3,10.5 h 0.9 l 3.3,-10.5 h 0.8 L 104.3,30 h -0.8 l 1.6,-5.1 h -1.4 l -3.5,-11.2 h 0.9 z"
           id="path25"
           inkscape:connector-curvature="0"
           style="fill:#ffffff" /></g></g><g
       id="g27"
       style="fill:#ffffff"><path
         fill="#EDE7F6"
         d="M11.1,6.7c-1.5,0-2.6,0.6-3.5,1.8c-0.8,1.2-1.2,2.9-1.2,5c0,4.4,1.7,6.6,5,6.6c1,0,2-0.1,3-0.4    c1-0.3,1.9-0.6,2.9-1V21c0,1.9-1.3,3.6-3.2,3.9c-1,0.2-2.1,0.3-3.3,0.3c-3.5,0-6.1-1-8-3c-1.8-2-2.8-4.9-2.8-8.7    c0-2.4,0.4-4.5,1.3-6.3c0.9-1.8,2.2-3.2,3.9-4.2c1.7-1,3.7-1.5,5.9-1.5c2.5,0,4.8,0.5,7.1,1.6l-0.9,2.2c-0.5,1.4-2.1,2.1-3.5,1.6    c0,0,0,0,0,0C12.9,6.9,12,6.7,11.1,6.7z"
         id="path29"
         style="fill:#ffffff" /><path
         fill="#EDE7F6"
         d="M20.1,2.7c0-0.9,0.3-1.6,0.8-2.1C21.4,0.2,22.2,0,23.3,0c1.1,0,2,0.2,2.5,0.7c0.5,0.5,0.8,1.1,0.8,2    c0,1.8-1.1,2.7-3.3,2.7C21.2,5.4,20.1,4.5,20.1,2.7z M22.7,25.3h-2.4V10.7c0-1.9,1.6-3.5,3.5-3.5h2.6v14.4    C26.4,23.6,24.7,25.3,22.7,25.3z"
         id="path31"
         style="fill:#ffffff" /><path
         fill="#EDE7F6"
         d="M85,19.5c0,1.9-0.6,3.3-1.9,4.3c-1.3,1-3.2,1.5-5.6,1.5c-1.3,0-2.5-0.1-3.4-0.2c0,0,0,0,0,0    c-1.7-0.3-3-1.8-3-3.5v-2.1c1,0.4,2,0.8,3.1,1c1.1,0.3,2.1,0.4,3,0.4c1.3,0,2-0.3,2-0.9c0-0.3-0.2-0.6-0.6-0.8    c-0.4-0.2-1.5-0.7-3.2-1.4c-1.6-0.7-2.8-1.4-3.4-2.3c-0.6-0.9-1-1.9-1-3.2c0-1.7,0.6-2.9,1.9-3.9c1.3-0.9,3.1-1.4,5.4-1.4    c1.2,0,2.3,0.1,3.3,0.4c1,0.3,2.1,0.6,3.2,1.1l-0.6,1.3c-0.6,1.4-2.2,2.1-3.7,1.7c0,0,0,0,0,0C79.7,11.1,79,11,78.4,11    c-1,0-1.5,0.2-1.5,0.7c0,0.3,0.2,0.6,0.5,0.8c0.4,0.2,1.4,0.7,3,1.3c1.2,0.5,2.2,1,2.8,1.5c0.6,0.5,1.1,1.1,1.3,1.7    C84.9,17.7,85,18.5,85,19.5z"
         id="path33"
         style="fill:#ffffff" /><path
         fill="#EDE7F6"
         d="M38.3,7.4h-1.4V3.8h-4.3l-1.5,3.7l-0.6,0.4c-1.3,0.9-2,2.4-2,3.9v0h2v7.3c0,2.1,0.5,3.6,1.4,4.7    c0.9,1,2.4,1.5,4.5,1.5c1,0,1.9-0.1,2.6-0.2c0,0,0,0,0,0c1.4-0.3,2.4-1.5,2.4-3v-2.3c-1.2,0.4-2,0.6-2.9,0.6    c-1.1,0-1.6-0.6-1.6-1.7v-6.9h1.9c-0.3-1.2-0.5-2.6-0.5-3.9C38.2,7.7,38.2,7.4,38.3,7.4z"
         id="path35"
         style="fill:#ffffff" /><path
         fill="#EDE7F6"
         d="M69,15c0-2.6-0.7-4.6-2.2-6s-3.5-2.1-6.2-2.1c-1,0-2,0.1-2.8,0.3c0,0.2,0,0.4,0,0.6    c0,4.7-2.5,9.9-4.8,13.5c0.3,0.6,0.8,1.1,1.2,1.6c1.6,1.6,3.9,2.4,6.9,2.4c1.4,0,2.6-0.1,3.7-0.3c0,0,0,0,0,0    c1.7-0.3,2.9-1.9,2.9-3.6v-1.8c-0.8,0.5-2,0.8-2.9,1c-0.9,0.2-1.9,0.3-3,0.3c-1.2,0-2.1-0.2-2.8-0.8c-0.7-0.6-1-1.5-1.1-2.3h8.2    C67.7,17.8,69,16.6,69,15L69,15z M58.1,13.8c0.1-0.8,0.4-1.7,0.9-2.1c0.5-0.5,1.1-0.7,1.8-0.7c0.8,0,1.4,0.2,1.9,0.7    c0.5,0.5,0.7,1.2,0.7,2H58.1z"
         id="path37"
         style="fill:#ffffff" /><path
         fill="#EDE7F6"
         d="M48,0c-4.3,0-7.8,3.5-7.8,7.8c0,7.8,7.8,17.1,7.8,17.1s7.8-9.4,7.8-17.1C55.8,3.5,52.3,0,48,0z M48,12.6    c-2.6,0-4.8-2.1-4.8-4.8C43.2,5.2,45.4,3,48,3c2.6,0,4.8,2.1,4.8,4.8C52.8,10.4,50.6,12.6,48,12.6z M45,7.8c0,1.7,1.4,3,3,3    c1.7,0,3-1.4,3-3s-1.4-3-3-3C46.3,4.8,45,6.1,45,7.8z"
         id="path39"
         style="fill:#ffffff" /></g></g></svg>