<?xml version="1.0" encoding="utf-8"?>
<!-- Generator: Adobe Illustrator 17.1.0, SVG Export Plug-In . SVG Version: 6.00 Build 0)  -->
<!DOCTYPE svg PUBLIC "-//W3C//DTD SVG 1.1//EN" "http://www.w3.org/Graphics/SVG/1.1/DTD/svg11.dtd">
<svg version="1.1" id="Layer_1" xmlns="http://www.w3.org/2000/svg" xmlns:xlink="http://www.w3.org/1999/xlink" x="0px" y="0px"
	 viewBox="0 0 216.4 76.7" enable-background="new 0 0 216.4 76.7" xml:space="preserve">
<g>
	<path fill="#FF3300" d="M13.7,20.2c-7.1,0-10.7,2.7-10.7,8c0,2.5,0.7,4.3,2.2,5.3c1.5,1,4.8,2,9.9,2.8c5.1,0.8,8.7,1.9,10.7,3.2
		c2,1.3,3,4,3,8c0,4-1.3,7-3.8,8.8c-2.6,1.8-6.3,2.8-11.3,2.8c-2.7,0-6.3-0.3-10.9-1l-2.3-0.3l0.3-2.6c5.8,0.9,10.3,1.4,13.7,1.4
		c3.4,0,6.2-0.7,8.2-2c2.1-1.3,3.1-3.6,3.1-6.8c0-3.2-0.8-5.3-2.4-6.3c-1.6-1-5-1.9-10-2.7C8.4,38,4.9,36.9,3,35.6
		c-2-1.3-3-3.5-3-6.6c0-3.1,0.7-5.5,2.2-7.2c1.4-1.7,3.1-2.8,5-3.4c1.9-0.6,3.9-0.8,6-0.8c4.3,0,8.4,0.3,12.1,0.9l2.1,0.3l-0.2,2.6
		C21.8,20.6,17.3,20.2,13.7,20.2"/>
	<path fill="#FF3300" d="M37.1,58.3h-2.8V0h2.8v20.8c4.7-2.1,9.5-3.1,14.5-3.1c5,0,8.3,1.3,10,4c1.7,2.7,2.6,8,2.6,15.9v20.8h-2.8
		V37.7c0-7-0.6-11.7-1.9-14c-1.3-2.3-4.1-3.5-8.4-3.5c-2.1,0-4.4,0.3-6.7,0.8c-2.3,0.5-4.1,1.1-5.3,1.6l-1.9,0.8V58.3z"/>
	<path fill="#FF3300" d="M73.7,22.1c2.5-3,6.6-4.5,12.5-4.5c5.9,0,10.1,1.5,12.5,4.5c2.4,3,3.7,8.4,3.7,16.1
		c0,7.8-1.1,13.2-3.3,16.2c-2.2,3-6.5,4.6-12.9,4.6c-6.4,0-10.8-1.5-12.9-4.6c-2.2-3-3.3-8.4-3.3-16.2C70,30.5,71.2,25.1,73.7,22.1
		 M79.2,55.6c1.7,0.6,4.1,0.9,7.1,0.9c3,0,5.3-0.3,7.1-0.9c1.7-0.6,3.1-1.8,4-3.4c0.9-1.7,1.5-3.6,1.8-5.7c0.3-2.1,0.4-5,0.4-8.8
		c0-6.7-0.9-11.3-2.8-13.7c-1.9-2.5-5.4-3.7-10.5-3.7c-5.1,0-8.6,1.2-10.5,3.7c-1.9,2.5-2.8,7-2.8,13.7c0,3.8,0.1,6.7,0.4,8.8
		c0.3,2.1,0.9,4,1.8,5.7C76.1,53.8,77.4,55,79.2,55.6"/>
	<path fill="#FF3300" d="M108.8,76.7V18.4h2.8v3.4c1.5-1,3.7-1.9,6.5-2.8c2.8-0.9,5.2-1.3,7.4-1.3c4.8,0,8.3,1.6,10.4,4.9
		c2.2,3.3,3.2,8.5,3.2,15.7c0,7.2-1.3,12.5-3.9,15.8c-2.6,3.4-6.9,5-13.1,5c-3.6,0-7.1-0.4-10.6-1.1v18.8H108.8z M125.4,20.2
		c-2,0-4.2,0.4-6.5,1.1c-2.3,0.7-4.1,1.4-5.4,2.1l-1.9,1v30.9c4.1,0.7,7.6,1.1,10.6,1.1c5.1,0,8.7-1.4,10.8-4.3
		c2.1-2.8,3.2-7.5,3.2-14.1c0-6.5-0.9-11.1-2.7-13.9C131.7,21.6,129,20.2,125.4,20.2"/>
	<path fill="#FF3300" d="M180.1,63.3c0,4.6-1.8,7.9-5.3,10.1c-3.5,2.2-8.3,3.3-14.3,3.3c-6,0-10.6-0.8-13.8-2.4
		c-3.2-1.6-4.8-4.5-4.8-8.7c0-3.4,1.9-6.5,5.8-9.5c-2-1.3-3-3.4-3-6.1c0-1.1,0.8-2.8,2.4-5.3l0.7-1.1c-3.6-2.6-5.4-6.5-5.4-11.6
		c0-5.1,1.5-8.8,4.6-11.1c3.1-2.3,7.1-3.4,12.2-3.4c2.3,0,4.6,0.3,6.8,0.8l1.3,0.2l12.9-0.4v8.6l-6-0.5c1.2,1.8,1.8,3.6,1.8,5.4
		c0,5.3-1.4,9-4.1,11c-2.7,2-7,3-12.8,3c-1.2,0-2.3-0.1-3.3-0.3c-0.5,1.4-0.8,2.5-0.8,3.4c0,0.9,0.5,1.5,1.4,1.8
		c0.9,0.3,3,0.5,6.4,0.6c6.7,0.1,11.3,0.9,13.7,2.7C178.8,55.6,180.1,58.8,180.1,63.3 M152.4,64.5c0,2.3,2.8,3.4,8.4,3.4
		c5.6,0,8.4-1.3,8.4-4c0-1.4-0.5-2.4-1.4-2.8c-1-0.4-3-0.6-6.1-0.7l-7.2-0.6C153.1,61.4,152.4,62.9,152.4,64.5 M153.1,31.8
		c0,3.9,2,5.9,6.1,5.9c4.1,0,6.1-2,6.1-5.9c0-3.9-2-5.9-6.1-5.9C155.1,25.9,153.1,27.9,153.1,31.8"/>
	<path fill="#FF3300" d="M183.9,22.9c2.8-3.6,7.5-5.5,14.1-5.5c6.6,0,11.3,1.8,14.1,5.5c2.8,3.6,4.2,8.8,4.2,15.4
		c0,14-6.1,21-18.4,21c-12.3,0-18.4-7-18.4-21C179.7,31.7,181.1,26.5,183.9,22.9 M192.2,47.3c1.1,1.9,3,2.9,5.9,2.9
		c2.8,0,4.8-1,5.9-2.9c1.1-1.9,1.6-4.9,1.6-9s-0.5-7.1-1.6-9c-1.1-1.9-3.1-2.8-5.9-2.8c-2.8,0-4.8,0.9-5.9,2.8
		c-1.1,1.9-1.6,4.8-1.6,9S191.1,45.4,192.2,47.3"/>
</g>
</svg>
