<?xml version="1.0" encoding="iso-8859-1"?>
<!-- Generator: Adobe Illustrator 18.0.0, SVG Export Plug-In . SVG Version: 6.00 Build 0)  -->
<!DOCTYPE svg PUBLIC "-//W3C//DTD SVG 1.1//EN" "http://www.w3.org/Graphics/SVG/1.1/DTD/svg11.dtd">
<svg version="1.1" id="Capa_1" xmlns="http://www.w3.org/2000/svg" xmlns:xlink="http://www.w3.org/1999/xlink" x="0px" y="0px"
	 viewBox="0 0 369.309 369.309" style="enable-background:new 0 0 369.309 369.309;" xml:space="preserve">
<path d="M361.992,254.197v-70.926c0-1.551-0.629-3.026-1.756-4.091l-40.531-38.274c-1.045-0.998-2.451-1.55-3.867-1.55h-51.803
	c-3.107,0-5.629,2.521-5.629,5.628v109.213h-12.393V77.056c0-8.049-6.516-14.593-14.592-14.593H24.162
	c-8.047,0-14.592,6.544-14.592,14.593v177.142H0v22.516h29.535c3.408,17.151,18.57,30.133,36.693,30.133
	c13.535,0,25.438-7.228,31.996-18.028c6.59,10.801,18.461,18.028,31.996,18.028c18.15,0,33.316-12.981,36.736-30.133h106.518
	c3.418,17.151,18.574,30.133,36.734,30.133c18.125,0,33.287-12.981,36.695-30.133h22.404v-22.516H361.992z M66.229,287.694
	c-10.088,0-18.271-8.21-18.271-18.299s8.184-18.293,18.271-18.293s18.316,8.204,18.316,18.293S76.316,287.694,66.229,287.694z
	 M130.221,287.694c-10.09,0-18.273-8.21-18.273-18.299s8.184-18.293,18.273-18.293c10.088,0,18.316,8.204,18.316,18.293
	S140.309,287.694,130.221,287.694z M310.209,287.694c-10.088,0-18.315-8.21-18.315-18.299s8.227-18.293,18.315-18.293
	c10.092,0,18.273,8.204,18.273,18.293S320.301,287.694,310.209,287.694z M336.57,199.973h-57.225v-38.275h30.529l26.695,25.176
	V199.973z"/>
<g>
</g>
<g>
</g>
<g>
</g>
<g>
</g>
<g>
</g>
<g>
</g>
<g>
</g>
<g>
</g>
<g>
</g>
<g>
</g>
<g>
</g>
<g>
</g>
<g>
</g>
<g>
</g>
<g>
</g>
</svg>
