<?xml version="1.0" encoding="UTF-8" standalone="no"?>
<!-- Generator: Adobe Illustrator 16.0.0, SVG Export Plug-In . SVG Version: 6.00 Build 0)  -->

<svg
   xmlns:dc="http://purl.org/dc/elements/1.1/"
   xmlns:cc="http://creativecommons.org/ns#"
   xmlns:rdf="http://www.w3.org/1999/02/22-rdf-syntax-ns#"
   xmlns:svg="http://www.w3.org/2000/svg"
   xmlns="http://www.w3.org/2000/svg"
   xmlns:xlink="http://www.w3.org/1999/xlink"
   xmlns:sodipodi="http://sodipodi.sourceforge.net/DTD/sodipodi-0.dtd"
   xmlns:inkscape="http://www.inkscape.org/namespaces/inkscape"
   version="1.1"
   id="Layer_1"
   x="0px"
   y="0px"
   width="235.5px"
   height="282.377px"
   viewBox="9 12.434 235.5 282.377"
   enable-background="new 9 12.434 235.5 282.377"
   xml:space="preserve"
   inkscape:version="0.48.5 r10040"
   sodipodi:docname="ups-color.svg"><metadata
     id="metadata1474"><rdf:RDF><cc:Work
         rdf:about=""><dc:format>image/svg+xml</dc:format><dc:type
           rdf:resource="http://purl.org/dc/dcmitype/StillImage" /><dc:title /></cc:Work></rdf:RDF></metadata><defs
     id="defs1472"><clipPath
       id="SVGID_236_"><use
         height="1052.3622"
         width="744.09448"
         y="0"
         x="0"
         style="overflow:visible"
         xlink:href="#SVGID_235_"
         overflow="visible"
         id="use1443" /></clipPath><clipPath
       id="SVGID_238_"><use
         height="1052.3622"
         width="744.09448"
         y="0"
         x="0"
         style="overflow:visible"
         xlink:href="#SVGID_237_"
         overflow="visible"
         id="use1453" /></clipPath></defs><sodipodi:namedview
     pagecolor="#ffffff"
     bordercolor="#666666"
     borderopacity="1"
     objecttolerance="10"
     gridtolerance="10"
     guidetolerance="10"
     inkscape:pageopacity="0"
     inkscape:pageshadow="2"
     inkscape:window-width="1280"
     inkscape:window-height="750"
     id="namedview1470"
     showgrid="false"
     inkscape:zoom="3.3430483"
     inkscape:cx="95.348786"
     inkscape:cy="188.53527"
     inkscape:window-x="0"
     inkscape:window-y="0"
     inkscape:window-maximized="1"
     inkscape:current-layer="g5" /><g
     id="g3"><g
       id="g5"
       style="display:inline"><g
         id="g7"
         style="fill:#feb500;fill-opacity:1"><g
           id="g9"
           style="fill:#feb500;fill-opacity:1"><defs
             id="defs11"><path
               id="SVGID_1_"
               d="m 239.938,40.271 c -23.854,-13.176 -50.916,-19.393 -72.65,-22.319 -23.732,-3.188 -41.1,-2.46 -41.014,-2.584 0.051,0.066 -4.582,-0.098 -12.35,0.167 C 106,15.811 94.81,16.531 81.986,18.411 71.873,19.897 60.75,22.1 49.41,25.362 37.058,28.921 24.458,33.743 12.635,40.271 c 0,9.165 0,18.331 0,27.496 0,2.659 0,7.823 0,10.478 0,7.525 0,12.553 0,20.082 0,25.544 0,51.092 0,76.636 0.007,27.27 9.397,51.235 29.949,68.317 4.658,3.939 11.807,8.437 20.016,13.004 6.962,3.866 14.69,7.783 22.284,11.466 8.957,4.333 17.735,8.316 24.884,11.476 9.811,4.333 16.56,7.106 16.505,7.053 -0.082,0.072 14.932,-6.104 32.683,-14.39 18.897,-8.828 40.882,-20.027 51.021,-28.607 20.562,-17.081 29.963,-41.049 29.963,-68.326 0,-25.535 0,-51.083 0,-76.627 0,-7.529 0,-13.387 0,-20.915 0,-2.659 0,-6.985 0,-9.645 -0.002,-9.167 -0.002,-18.334 -0.002,-27.498"
               inkscape:connector-curvature="0" /></defs><clipPath
             id="SVGID_2_"><use
               xlink:href="#SVGID_1_"
               overflow="visible"
               id="use15"
               style="overflow:visible"
               x="0"
               y="0"
               width="235.5"
               height="282.37701" /></clipPath><linearGradient
             id="SVGID_3_"
             gradientUnits="userSpaceOnUse"
             x1="65.740196"
             y1="109.9456"
             x2="301.2402"
             y2="109.9456"
             gradientTransform="matrix(1,0,0,-1,-56.7402,259.4458)"><stop
               offset="0"
               style="stop-color:#FFD66B"
               id="stop18" /><stop
               offset="0.2821"
               style="stop-color:#FDE2D2"
               id="stop20" /><stop
               offset="0.4908"
               style="stop-color:#E9AA70"
               id="stop22" /><stop
               offset="1"
               style="stop-color:#DC931D"
               id="stop24" /></linearGradient><rect
             x="9"
             y="13"
             clip-path="url(#SVGID_2_)"
             width="235.5"
             height="273"
             id="rect26"
             style="fill:#feb500;fill-opacity:1" /></g></g><g
         id="g28"
         style="fill:#331a13;fill-opacity:1"><g
           id="g30"
           style="fill:#331a13;fill-opacity:1"><defs
             id="defs32"><path
               id="SVGID_4_"
               d="m 231.023,42.028 c -33.25,-3.497 -69.891,-4.414 -106.362,2.855 -10.585,2.128 -21.157,4.938 -31.589,8.591 -11.147,3.908 -22.126,8.768 -32.784,14.768 -13.627,7.675 -26.713,17.214 -38.925,28.978 -0.002,2.517 -0.009,5.033 -0.016,7.547 -0.018,12.074 -0.029,24.159 -0.034,36.245 -0.009,11.342 0,22.69 0.009,34.039 0.018,25.301 9.11,46.589 26.897,61.366 10.938,5.661 21.878,11.326 32.822,16.991 8.355,4.333 16.716,8.655 25.074,12.988 6.721,3.476 13.441,6.953 20.162,10.44 13.396,-5.584 62.211,-27.025 78.068,-40.421 17.791,-14.777 26.872,-36.065 26.891,-61.366 0.027,-24.387 0.015,-48.788 -0.026,-73.15 -0.036,-16.551 -0.081,-33.086 -0.146,-49.569 -0.017,-3.433 -0.026,-6.869 -0.041,-10.302"
               inkscape:connector-curvature="0" /></defs><clipPath
             id="SVGID_5_"><use
               xlink:href="#SVGID_4_"
               overflow="visible"
               id="use36"
               style="overflow:visible"
               x="0"
               y="0"
               width="235.5"
               height="282.37701" /></clipPath><linearGradient
             id="SVGID_6_"
             gradientUnits="userSpaceOnUse"
             x1="72.732399"
             y1="127.0876"
             x2="173.7326"
             y2="104.0876"
             gradientTransform="matrix(1,0,0,-1,-56.7402,259.4458)"><stop
               offset="0"
               style="stop-color:#DBC9B8"
               id="stop39" /><stop
               offset="0.3114"
               style="stop-color:#775024"
               id="stop41" /><stop
               offset="1"
               style="stop-color:#4E2700"
               id="stop43" /></linearGradient><rect
             x="20"
             y="36.5"
             clip-path="url(#SVGID_5_)"
             width="215"
             height="242.5"
             id="rect45"
             style="fill:#331a13;fill-opacity:1" /></g></g><path
         d="M 126.277,276.838 48.219,236.417 c 15.851,13.396 64.666,34.837 78.058,40.421"
         id="path47"
         style="fill:#feb500;fill-opacity:1"
         inkscape:connector-curvature="0" /><path
         d="m 241.396,174.952 c 0,14.096 -2.492,27.069 -7.381,38.572 -5.138,12.009 -12.898,22.403 -23.104,30.87 -10.269,8.697 -32.569,19.996 -49.466,27.938 -9.668,4.55 -18.491,8.447 -24.207,10.915 -3.415,1.48 -9.393,3.971 -10.965,4.616 v 0.806 c 1.576,-0.66 7.83,-3.276 11.264,-4.758 5.711,-2.468 14.552,-6.37 24.216,-10.915 24.64,-11.594 41.347,-21.018 49.642,-28.038 10.271,-8.543 18.117,-19.038 23.276,-31.154 4.946,-11.593 7.459,-24.649 7.459,-38.854 V 38.976 l -0.731,0.425 v 135.552"
         id="path49"
         style="fill:#feb500;fill-opacity:1"
         inkscape:connector-curvature="0" /><path
         d="M 11.925,38.99 C 53.485,16.014 104.884,13.795 125.036,13.905 h 1.237 1.261 c 20.149,-0.109 71.545,2.11 113.104,25.085 l 0.758,0.411 0.732,-0.425 -1.145,-0.624 C 199.274,15.291 147.745,13.068 127.518,13.177 h -1.246 -1.238 C 104.821,13.069 53.277,15.291 11.571,38.345 l -1.141,0.624 0.736,0.432 0.759,-0.411"
         id="path51"
         style="fill:#feb500;fill-opacity:1"
         inkscape:connector-curvature="0" /><path
         d="m 17.894,213.806 c 5.175,12.116 13.011,22.611 23.296,31.164 8.281,7.012 24.973,16.436 49.62,28.028 9.661,4.545 18.51,8.447 24.22,10.915 3.42,1.48 9.69,4.098 11.246,4.758 v -0.805 c -1.555,-0.646 -7.534,-3.137 -10.957,-4.617 -5.71,-2.468 -14.547,-6.365 -24.209,-10.915 -16.895,-7.942 -39.183,-19.241 -49.445,-27.925 -10.206,-8.48 -17.972,-18.876 -23.098,-30.885 -4.895,-11.503 -7.38,-24.478 -7.38,-38.572 L 11.168,39.401 10.432,38.969 10.453,174.952 c 0.006,14.204 2.509,27.261 7.441,38.854"
         id="path53"
         style="fill:#feb500;fill-opacity:1"
         inkscape:connector-curvature="0" /><path
         d="M 124.955,46.324 C 84.414,54.447 50.056,71.784 22.827,97.861 l 0.734,0.321 c 27.093,-25.86 61.242,-43.071 101.534,-51.14 30.297,-6.045 64.252,-7.025 103.734,-3.017 l 0.735,-0.667 c -39.835,-4.093 -74.073,-3.124 -104.609,2.966"
         id="path127"
         style="fill:#feb500;fill-opacity:1"
         inkscape:connector-curvature="0" /><path
         d="m 229.051,150.862 c 0,8.088 -0.01,16.156 -0.014,24.188 -0.021,24.876 -9.045,45.504 -26.107,59.677 -14.693,12.41 -59.492,32.533 -76.65,39.727 v 0.79 c 16.97,-7.099 62.283,-27.414 77.123,-39.951 17.231,-14.313 26.345,-35.148 26.375,-60.241 0.006,-8.032 0.015,-16.102 0.015,-24.188 0,-35.567 -0.081,-71.62 -0.226,-107.501 l -0.736,0.667 c 0.148,35.654 0.22,71.485 0.22,106.832"
         id="path129"
         style="fill:#feb500;fill-opacity:1"
         inkscape:connector-curvature="0" /><path
         d="m 49.625,234.723 c -17.055,-14.168 -26.082,-34.806 -26.1,-59.672 -0.014,-7.915 -0.014,-15.938 -0.014,-24.075 0,-17.215 0.018,-34.887 0.05,-52.793 l -0.734,-0.321 c -0.031,18.018 -0.047,35.796 -0.047,53.114 0,8.137 0.004,16.17 0.011,24.075 0.018,25.093 9.14,45.92 26.359,60.241 14.769,12.465 60.137,32.831 77.127,39.951 v -0.79 c -17.175,-7.22 -62.037,-27.388 -76.652,-39.73"
         id="path131"
         style="fill:#feb500;fill-opacity:1"
         inkscape:connector-curvature="0" /><path
         d="m 127.521,12.438 -1.246,0.011 -1.234,-0.011 C 104.768,12.328 53.097,14.563 11.237,37.713 l -1.537,0.825 0.732,0.431 1.141,-0.624 C 53.28,15.291 104.823,13.068 125.036,13.177 h 1.237 1.246 c 20.228,-0.108 71.758,2.114 113.467,25.175 l 1.144,0.624 0.736,-0.438 -1.527,-0.825 C 199.48,14.564 147.793,12.328 127.521,12.438"
         id="path133"
         style="fill:#feb500;fill-opacity:1"
         inkscape:connector-curvature="0" /><path
         d="m 242.13,174.952 c 0,14.203 -2.513,27.261 -7.459,38.854 -5.159,12.116 -13.007,22.611 -23.276,31.154 -8.295,7.021 -25.002,16.444 -49.642,28.038 -9.664,4.545 -18.505,8.447 -24.216,10.915 -3.434,1.48 -9.688,4.098 -11.264,4.758 v 0.785 c 1.576,-0.659 8.119,-3.385 11.558,-4.865 5.715,-2.484 14.562,-6.379 24.247,-10.929 24.676,-11.615 41.429,-21.085 49.777,-28.143 10.377,-8.62 18.297,-19.195 23.502,-31.431 4.97,-11.674 7.498,-24.835 7.509,-39.138 V 38.538 l -0.736,0.438 v 135.976"
         id="path135"
         style="fill:#feb500;fill-opacity:1"
         inkscape:connector-curvature="0" /><path
         d="m 115.029,283.913 c -5.71,-2.468 -14.559,-6.37 -24.22,-10.915 C 66.162,261.404 49.471,251.98 41.189,244.97 30.904,236.417 23.068,225.922 17.893,213.806 12.961,202.213 10.459,189.157 10.452,174.952 L 10.432,38.969 9.7,38.538 9.718,174.952 c 0.011,14.303 2.528,27.464 7.504,39.138 5.209,12.233 13.12,22.811 23.493,31.431 8.349,7.058 25.094,16.526 49.777,28.143 9.668,4.55 18.523,8.443 24.238,10.929 3.424,1.48 9.989,4.206 11.543,4.865 v -0.785 c -1.553,-0.662 -7.824,-3.278 -11.244,-4.76"
         id="path137"
         style="fill:#feb500;fill-opacity:1"
         inkscape:connector-curvature="0" /><path
         d="m 161.445,272.334 c 16.896,-7.942 39.197,-19.241 49.466,-27.938 10.206,-8.467 17.968,-18.861 23.104,-30.87 4.889,-11.503 7.381,-24.478 7.381,-38.572 V 39.401 l -1.459,0.87 c 0,44.907 0,89.783 0,134.683 0,27.272 -9.396,51.244 -29.957,68.326 -19.657,16.636 -83.864,43.155 -83.707,42.997 v 1.591 c 1.572,-0.646 7.55,-3.137 10.966,-4.617 5.715,-2.469 14.538,-6.367 24.206,-10.917"
         id="path595"
         style="fill:#feb500;fill-opacity:1"
         inkscape:connector-curvature="0" /><g
         id="g597"
         style="fill:#feb500;fill-opacity:1"><g
           id="g599"
           style="fill:#feb500;fill-opacity:1"><defs
             id="defs601"><path
               id="SVGID_87_"
               d="M 42.59,243.279 C 22.045,226.197 12.648,202.225 12.648,174.953 c 0,-44.898 -0.013,-89.774 -0.013,-134.687 l -1.466,-0.865 0.018,135.552 c 0,14.096 2.485,27.069 7.38,38.572 5.125,12.008 12.892,22.403 23.098,30.885 10.262,8.684 32.551,19.981 49.445,27.925 9.662,4.55 18.499,8.447 24.209,10.915 3.422,1.48 9.401,3.971 10.957,4.617 v -1.591 c 0.179,0.159 -64.029,-26.362 -83.686,-42.997"
               inkscape:connector-curvature="0" /></defs><clipPath
             id="SVGID_88_"><use
               xlink:href="#SVGID_87_"
               overflow="visible"
               id="use605"
               style="overflow:visible"
               x="0"
               y="0"
               width="235.5"
               height="282.37701" /></clipPath><path
             clip-path="url(#SVGID_88_)"
             d="M 42.59,243.279 C 22.045,226.197 12.648,202.225 12.648,174.953 c 0,-44.898 -0.013,-89.774 -0.013,-134.687 l -1.466,-0.865 0.018,135.552 c 0,14.096 2.485,27.069 7.38,38.572 5.125,12.008 12.892,22.403 23.098,30.885 10.262,8.684 32.551,19.981 49.445,27.925 9.662,4.55 18.499,8.447 24.209,10.915 3.422,1.48 9.401,3.971 10.957,4.617 v -1.591 c 0.179,0.159 -64.029,-26.362 -83.686,-42.997"
             id="path607"
             style="fill:#feb500;fill-opacity:1"
             inkscape:connector-curvature="0" /></g><g
           id="g609"
           style="fill:#feb500;fill-opacity:1"><defs
             id="defs611"><path
               id="SVGID_89_"
               d="M 42.59,243.279 C 22.045,226.197 12.648,202.225 12.648,174.953 c 0,-44.898 -0.013,-89.774 -0.013,-134.687 l -1.466,-0.865 0.018,135.552 c 0,14.096 2.485,27.069 7.38,38.572 5.125,12.008 12.892,22.403 23.098,30.885 10.262,8.684 32.551,19.981 49.445,27.925 9.662,4.55 18.499,8.447 24.209,10.915 3.422,1.48 9.401,3.971 10.957,4.617 v -1.591 c 0.179,0.159 -64.029,-26.362 -83.686,-42.997"
               inkscape:connector-curvature="0" /></defs><clipPath
             id="SVGID_90_"><use
               xlink:href="#SVGID_89_"
               overflow="visible"
               id="use615"
               style="overflow:visible"
               x="0"
               y="0"
               width="235.5"
               height="282.37701" /></clipPath><linearGradient
             id="SVGID_91_"
             gradientUnits="userSpaceOnUse"
             x1="-752.77197"
             y1="-57.847401"
             x2="-748.14728"
             y2="-57.847401"
             gradientTransform="matrix(24.8811,0,0,56.5076,18740.969,3432.4055)"><stop
               offset="0"
               style="stop-color:#FFD568"
               id="stop618" /><stop
               offset="0.8353"
               style="stop-color:#A36D12"
               id="stop620" /><stop
               offset="1"
               style="stop-color:#905800"
               id="stop622" /></linearGradient><rect
             x="11.168"
             y="39.401001"
             clip-path="url(#SVGID_90_)"
             width="115.287"
             height="248.466"
             id="rect624"
             style="fill:#feb500;fill-opacity:1" /></g></g><path
         d="m 126.273,15.359 c -0.157,0.235 63.778,-2.656 113.664,24.911 l 1.459,-0.87 -0.758,-0.411 C 199.077,16.013 147.683,13.794 127.534,13.904 h -1.261 -1.237 C 104.884,13.795 53.485,16.014 11.925,38.989 l -0.757,0.411 1.466,0.865 C 62.519,12.698 126.455,15.594 126.273,15.359"
         id="path626"
         style="fill:#feb500;fill-opacity:1"
         inkscape:connector-curvature="0" /><path
         d="m 124.955,46.324 c 30.536,-6.091 64.771,-7.06 104.609,-2.964 l 1.465,-1.333 C 197.773,38.53 161.133,37.607 124.665,44.882 88.268,52.17 52.042,67.655 21.361,97.22 l 1.466,0.642 C 50.056,71.785 84.414,54.448 124.955,46.324"
         id="path1402"
         style="fill:#feb500;fill-opacity:1"
         inkscape:connector-curvature="0" /><path
         d="m 229.564,43.361 c 0.146,35.881 0.227,71.934 0.227,107.501 0,8.088 -0.009,16.156 -0.014,24.188 -0.031,25.093 -9.145,45.929 -26.375,60.241 -14.842,12.537 -60.154,32.854 -77.125,39.951 v 1.6 c 13.396,-5.58 62.211,-27.03 78.074,-40.426 17.785,-14.773 26.871,-36.065 26.895,-61.366 0.036,-44.403 -0.027,-88.893 -0.217,-133.023 l -1.465,1.334"
         id="path1404"
         style="fill:#feb500;fill-opacity:1"
         inkscape:connector-curvature="0" /><g
         id="g1406"
         style="fill:#feb500;fill-opacity:1"><g
           id="g1408"
           style="fill:#feb500;fill-opacity:1"><defs
             id="defs1410"><path
               id="SVGID_230_"
               d="M 49.15,235.292 C 31.93,220.971 22.809,200.144 22.791,175.051 22.784,167.146 22.78,159.113 22.78,150.976 c 0,-17.318 0.016,-35.097 0.047,-53.114 L 21.361,97.22 c -0.043,25.91 -0.068,51.89 -0.039,77.831 0.018,25.301 9.101,46.593 26.897,61.366 15.865,13.396 64.693,34.846 78.058,40.426 v -1.6 c -16.99,-7.12 -62.358,-27.486 -77.127,-39.951"
               inkscape:connector-curvature="0" /></defs><clipPath
             id="SVGID_231_"><use
               xlink:href="#SVGID_230_"
               overflow="visible"
               id="use1414"
               style="overflow:visible"
               x="0"
               y="0"
               width="235.5"
               height="282.37701" /></clipPath><path
             clip-path="url(#SVGID_231_)"
             d="M 49.15,235.292 C 31.93,220.971 22.809,200.144 22.791,175.051 22.784,167.146 22.78,159.113 22.78,150.976 c 0,-17.318 0.016,-35.097 0.047,-53.114 L 21.361,97.22 c -0.043,25.91 -0.068,51.89 -0.039,77.831 0.018,25.301 9.101,46.593 26.897,61.366 15.865,13.396 64.693,34.846 78.058,40.426 v -1.6 c -16.99,-7.12 -62.358,-27.486 -77.127,-39.951"
             id="path1416"
             style="fill:#feb500;fill-opacity:1"
             inkscape:connector-curvature="0" /></g><g
           id="g1418"
           style="fill:#feb500;fill-opacity:1"><defs
             id="defs1420"><path
               id="SVGID_232_"
               d="M 49.15,235.292 C 31.93,220.971 22.809,200.144 22.791,175.051 22.784,167.146 22.78,159.113 22.78,150.976 c 0,-17.318 0.016,-35.097 0.047,-53.114 L 21.361,97.22 c -0.043,25.91 -0.068,51.89 -0.039,77.831 0.018,25.301 9.101,46.593 26.897,61.366 15.865,13.396 64.693,34.846 78.058,40.426 v -1.6 c -16.99,-7.12 -62.358,-27.486 -77.127,-39.951"
               inkscape:connector-curvature="0" /></defs><clipPath
             id="SVGID_233_"><use
               xlink:href="#SVGID_232_"
               overflow="visible"
               id="use1424"
               style="overflow:visible"
               x="0"
               y="0"
               width="235.5"
               height="282.37701" /></clipPath><linearGradient
             id="SVGID_234_"
             gradientUnits="userSpaceOnUse"
             x1="-776.42529"
             y1="-53.591599"
             x2="-771.79883"
             y2="-53.591599"
             gradientTransform="matrix(0,-38.8261,25.494,0,1440.0376,-29868.732)"><stop
               offset="0"
               style="stop-color:#C27913"
               id="stop1427" /><stop
               offset="0.3"
               style="stop-color:#DB9A28"
               id="stop1429" /><stop
               offset="1"
               style="stop-color:#C27913"
               id="stop1431" /></linearGradient><rect
             x="21.292999"
             y="97.220001"
             clip-path="url(#SVGID_233_)"
             width="104.984"
             height="179.623"
             id="rect1433"
             style="fill:#feb500;fill-opacity:1" /></g></g><g
         transform="translate(0,-2.9199219e-6)"
         id="g1435"
         style="fill:#feb500;fill-opacity:1"><g
           id="g1437"
           style="fill:#feb500;fill-opacity:1"><defs
             id="defs1439"><path
               inkscape:connector-curvature="0"
               id="SVGID_235_"
               d="m 203.863,171.455 c -0.137,-6.379 -3.637,-9.826 -12.446,-15.055 -16.59,-9.84 -19.651,-17.991 -19.698,-28.863 -0.1,-16.492 13.815,-26.019 26.928,-26.266 10.969,-0.21 18.302,4.056 21.758,6.807 0.018,5.839 0.031,11.689 0.035,17.535 -4.088,-4.346 -10.729,-8.328 -17.701,-8.452 -5.655,-0.106 -11.564,2.388 -11.745,9.625 -0.163,7.391 5.771,10.341 13.165,14.794 16.599,10.014 19.611,18.858 19.291,30.624 -0.426,12.894 -8.999,27.08 -28.778,27.297 -7.925,0.081 -15.795,-2.367 -22.119,-6.108 0.026,-6.248 0.046,-12.505 0.054,-18.785 5.179,4.653 12.881,8.204 19.273,8.204 7.335,-0.003 12.141,-4.309 11.983,-11.357 m -82.355,-52.703 c 1.653,-0.802 4.486,-1.461 7.242,-1.461 11.877,0 16.811,9.479 16.829,32.434 -0.011,22.381 -5.652,33.17 -17.435,33.17 -2.751,0 -5.165,-0.688 -6.638,-1.238 -0.003,-20.923 -0.001,-41.983 0.002,-62.905 z m 0.04,121.993 c -0.009,-13.979 -0.025,-28.143 -0.027,-42.409 2.028,0.597 5.02,1.139 9.208,1.134 22.644,-0.022 35.694,-20.411 35.694,-50.288 -0.014,-29.795 -13.432,-48.272 -37.823,-48.287 -11.118,0 -20.116,2.472 -27.493,7.283 -0.102,44.203 -0.041,89.246 0.176,132.508 6.75,0.037 13.509,0.054 20.265,0.059 z M 61.545,182.316 c 4.086,0.026 7.346,-0.895 9.528,-2.403 -0.072,-25.563 -0.05,-51.282 0.075,-76.747 6.711,-0.057 13.458,-0.103 20.222,-0.131 -0.099,29.363 -0.106,59.117 -0.018,88.542 -7.762,5.269 -18.146,8.068 -30.43,7.955 C 41.086,199.33 31.355,188.35 31.317,167.01 c 0,-21.145 0.002,-42.319 0.002,-63.419 6.535,-0.093 13.143,-0.165 19.791,-0.239 -0.102,21.469 -0.138,43.086 -0.102,64.648 0.017,5.728 1.372,14.253 10.537,14.316 z" /></defs><clipPath
             id="clipPath3572"><use
               height="1052.3622"
               width="744.09448"
               y="0"
               x="0"
               style="overflow:visible"
               xlink:href="#SVGID_235_"
               overflow="visible"
               id="use3574" /></clipPath><path
             inkscape:connector-curvature="0"
             clip-path="url(#SVGID_236_)"
             d="m 203.863,171.455 c -0.137,-6.379 -3.637,-9.826 -12.446,-15.055 -16.59,-9.84 -19.651,-17.991 -19.698,-28.863 -0.1,-16.492 13.815,-26.019 26.928,-26.266 10.969,-0.21 18.302,4.056 21.758,6.807 0.018,5.839 0.031,11.689 0.035,17.535 -4.088,-4.346 -10.729,-8.328 -17.701,-8.452 -5.655,-0.106 -11.564,2.388 -11.745,9.625 -0.163,7.391 5.771,10.341 13.165,14.794 16.599,10.014 19.611,18.858 19.291,30.624 -0.426,12.894 -8.999,27.08 -28.778,27.297 -7.925,0.081 -15.795,-2.367 -22.119,-6.108 0.026,-6.248 0.046,-12.505 0.054,-18.785 5.179,4.653 12.881,8.204 19.273,8.204 7.335,-0.003 12.141,-4.309 11.983,-11.357 m -82.355,-52.703 c 1.653,-0.802 4.486,-1.461 7.242,-1.461 11.877,0 16.811,9.479 16.829,32.434 -0.011,22.381 -5.652,33.17 -17.435,33.17 -2.751,0 -5.165,-0.688 -6.638,-1.238 -0.003,-20.923 -0.001,-41.983 0.002,-62.905 z m 0.04,121.993 c -0.009,-13.979 -0.025,-28.143 -0.027,-42.409 2.028,0.597 5.02,1.139 9.208,1.134 22.644,-0.022 35.694,-20.411 35.694,-50.288 -0.014,-29.795 -13.432,-48.272 -37.823,-48.287 -11.118,0 -20.116,2.472 -27.493,7.283 -0.102,44.203 -0.041,89.246 0.176,132.508 6.75,0.037 13.509,0.054 20.265,0.059 z M 61.545,182.316 c 4.086,0.026 7.346,-0.895 9.528,-2.403 -0.072,-25.563 -0.05,-51.282 0.075,-76.747 6.711,-0.057 13.458,-0.103 20.222,-0.131 -0.099,29.363 -0.106,59.117 -0.018,88.542 -7.762,5.269 -18.146,8.068 -30.43,7.955 C 41.086,199.33 31.355,188.35 31.317,167.01 c 0,-21.145 0.002,-42.319 0.002,-63.419 6.535,-0.093 13.143,-0.165 19.791,-0.239 -0.102,21.469 -0.138,43.086 -0.102,64.648 0.017,5.728 1.372,14.253 10.537,14.316 z"
             id="path1445"
             style="fill:#feb500;fill-opacity:1" /></g><g
           id="g1447"
           style="fill:#feb500;fill-opacity:1"><defs
             id="defs1449"><path
               inkscape:connector-curvature="0"
               id="SVGID_237_"
               d="m 203.863,171.455 c -0.137,-6.379 -3.637,-9.826 -12.446,-15.055 -16.59,-9.84 -19.651,-17.991 -19.698,-28.863 -0.1,-16.492 13.815,-26.019 26.928,-26.266 10.969,-0.21 18.302,4.056 21.758,6.807 0.018,5.839 0.031,11.689 0.035,17.535 -4.088,-4.346 -10.729,-8.328 -17.701,-8.452 -5.655,-0.106 -11.564,2.388 -11.745,9.625 -0.163,7.391 5.771,10.341 13.165,14.794 16.599,10.014 19.611,18.858 19.291,30.624 -0.426,12.894 -8.999,27.08 -28.778,27.297 -7.925,0.081 -15.795,-2.367 -22.119,-6.108 0.026,-6.248 0.046,-12.505 0.054,-18.785 5.179,4.653 12.881,8.204 19.273,8.204 7.335,-0.003 12.141,-4.309 11.983,-11.357 m -82.355,-52.703 c 1.653,-0.802 4.486,-1.461 7.242,-1.461 11.877,0 16.811,9.479 16.829,32.434 -0.011,22.381 -5.652,33.17 -17.435,33.17 -2.751,0 -5.165,-0.688 -6.638,-1.238 -0.003,-20.923 -0.001,-41.983 0.002,-62.905 z m 0.04,121.993 c -0.009,-13.979 -0.025,-28.143 -0.027,-42.409 2.028,0.597 5.02,1.139 9.208,1.134 22.644,-0.022 35.694,-20.411 35.694,-50.288 -0.014,-29.795 -13.432,-48.272 -37.823,-48.287 -11.118,0 -20.116,2.472 -27.493,7.283 -0.102,44.203 -0.041,89.246 0.176,132.508 6.75,0.037 13.509,0.054 20.265,0.059 z M 61.545,182.316 c 4.086,0.026 7.346,-0.895 9.528,-2.403 -0.072,-25.563 -0.05,-51.282 0.075,-76.747 6.711,-0.057 13.458,-0.103 20.222,-0.131 -0.099,29.363 -0.106,59.117 -0.018,88.542 -7.762,5.269 -18.146,8.068 -30.43,7.955 C 41.086,199.33 31.355,188.35 31.317,167.01 c 0,-21.145 0.002,-42.319 0.002,-63.419 6.535,-0.093 13.143,-0.165 19.791,-0.239 -0.102,21.469 -0.138,43.086 -0.102,64.648 0.017,5.728 1.372,14.253 10.537,14.316 z" /></defs><clipPath
             id="clipPath3580"><use
               height="1052.3622"
               width="744.09448"
               y="0"
               x="0"
               style="overflow:visible"
               xlink:href="#SVGID_237_"
               overflow="visible"
               id="use3582" /></clipPath><radialGradient
             id="SVGID_239_"
             cx="121.9072"
             cy="134.6106"
             r="132.3331"
             gradientTransform="matrix(1,0,0,-1,-56.7402,259.4458)"
             gradientUnits="userSpaceOnUse"><stop
               offset="0"
               style="stop-color:#FFE7B0"
               id="stop1456" /><stop
               offset="0.5275"
               style="stop-color:#FEBF52"
               id="stop1458" /><stop
               offset="0.5568"
               style="stop-color:#F9B94C"
               id="stop1460" /><stop
               offset="1"
               style="stop-color:#DA9017"
               id="stop1462" /></radialGradient><rect
             x="30.833"
             y="100.833"
             clip-path="url(#SVGID_238_)"
             width="193.33299"
             height="140.66701"
             id="rect1464"
             style="fill:#feb500;fill-opacity:1" /></g></g></g></g></svg>