<?xml version="1.0" encoding="UTF-8" standalone="no"?>
<!-- Generator: Adobe Illustrator 16.0.0, SVG Export Plug-In . SVG Version: 6.00 Build 0)  -->

<svg
   xmlns:dc="http://purl.org/dc/elements/1.1/"
   xmlns:cc="http://creativecommons.org/ns#"
   xmlns:rdf="http://www.w3.org/1999/02/22-rdf-syntax-ns#"
   xmlns:svg="http://www.w3.org/2000/svg"
   xmlns="http://www.w3.org/2000/svg"
   xmlns:xlink="http://www.w3.org/1999/xlink"
   xmlns:sodipodi="http://sodipodi.sourceforge.net/DTD/sodipodi-0.dtd"
   xmlns:inkscape="http://www.inkscape.org/namespaces/inkscape"
   version="1.1"
   id="Layer_1"
   x="0px"
   y="0px"
   width="235.5px"
   height="282.377px"
   viewBox="9 12.434 235.5 282.377"
   enable-background="new 9 12.434 235.5 282.377"
   xml:space="preserve"
   inkscape:version="0.48.5 r10040"
   sodipodi:docname="United_Parcel_Service_logo-custom2.svg"><metadata
     id="metadata1474"><rdf:RDF><cc:Work
         rdf:about=""><dc:format>image/svg+xml</dc:format><dc:type
           rdf:resource="http://purl.org/dc/dcmitype/StillImage" /><dc:title /></cc:Work></rdf:RDF></metadata><defs
     id="defs1472"><clipPath
       id="SVGID_236_"><use
         height="1052.3622"
         width="744.09448"
         y="0"
         x="0"
         style="overflow:visible"
         xlink:href="#SVGID_235_"
         overflow="visible"
         id="use1443" /></clipPath><clipPath
       id="SVGID_238_"><use
         height="1052.3622"
         width="744.09448"
         y="0"
         x="0"
         style="overflow:visible"
         xlink:href="#SVGID_237_"
         overflow="visible"
         id="use1453" /></clipPath></defs><sodipodi:namedview
     pagecolor="#ffffff"
     bordercolor="#666666"
     borderopacity="1"
     objecttolerance="10"
     gridtolerance="10"
     guidetolerance="10"
     inkscape:pageopacity="0"
     inkscape:pageshadow="2"
     inkscape:window-width="1280"
     inkscape:window-height="750"
     id="namedview1470"
     showgrid="false"
     inkscape:zoom="2.3638921"
     inkscape:cx="31.303798"
     inkscape:cy="106.37258"
     inkscape:window-x="0"
     inkscape:window-y="0"
     inkscape:window-maximized="1"
     inkscape:current-layer="g5" /><g
     id="g3"><g
       id="g5"><g
         id="g7"
         style="fill:#000000"><g
           id="g9"
           style="fill:#000000"><defs
             id="defs11"><path
               id="SVGID_1_"
               d="M239.938,40.271c-23.854-13.176-50.916-19.393-72.65-22.319c-23.732-3.188-41.1-2.46-41.014-2.584       c0.051,0.066-4.582-0.098-12.35,0.167C106,15.811,94.81,16.531,81.986,18.411C71.873,19.897,60.75,22.1,49.41,25.362       c-12.352,3.559-24.952,8.381-36.775,14.909c0,9.165,0,18.331,0,27.496c0,2.659,0,7.823,0,10.478c0,7.525,0,12.553,0,20.082       c0,25.544,0,51.092,0,76.636c0.007,27.27,9.397,51.235,29.949,68.317c4.658,3.939,11.807,8.437,20.016,13.004       c6.962,3.866,14.69,7.783,22.284,11.466c8.957,4.333,17.735,8.316,24.884,11.476c9.811,4.333,16.56,7.106,16.505,7.053       c-0.082,0.072,14.932-6.104,32.683-14.39c18.897-8.828,40.882-20.027,51.021-28.607c20.562-17.081,29.963-41.049,29.963-68.326       c0-25.535,0-51.083,0-76.627c0-7.529,0-13.387,0-20.915c0-2.659,0-6.985,0-9.645C239.938,58.602,239.938,49.435,239.938,40.271       " /></defs><clipPath
             id="SVGID_2_"><use
               xlink:href="#SVGID_1_"
               overflow="visible"
               id="use15" /></clipPath><linearGradient
             id="SVGID_3_"
             gradientUnits="userSpaceOnUse"
             x1="65.7402"
             y1="109.9456"
             x2="301.2402"
             y2="109.9456"
             gradientTransform="matrix(1 0 0 -1 -56.7402 259.4458)"><stop
               offset="0"
               style="stop-color:#FFD66B"
               id="stop18" /><stop
               offset="0.2821"
               style="stop-color:#FDE2D2"
               id="stop20" /><stop
               offset="0.4908"
               style="stop-color:#E9AA70"
               id="stop22" /><stop
               offset="1"
               style="stop-color:#DC931D"
               id="stop24" /></linearGradient><rect
             x="9"
             y="13"
             clip-path="url(#SVGID_2_)"
             fill="url(#SVGID_3_)"
             width="235.5"
             height="273"
             id="rect26"
             style="fill:#000000" /></g></g><g
         id="g28"
         style="fill:#ffffff"><g
           id="g30"
           style="fill:#ffffff"><defs
             id="defs32"><path
               id="SVGID_4_"
               d="M231.023,42.028c-33.25-3.497-69.891-4.414-106.362,2.855c-10.585,2.128-21.157,4.938-31.589,8.591       c-11.147,3.908-22.126,8.768-32.784,14.768C46.661,75.917,33.575,85.456,21.363,97.22c-0.002,2.517-0.009,5.033-0.016,7.547       c-0.018,12.074-0.029,24.159-0.034,36.245c-0.009,11.342,0,22.69,0.009,34.039c0.018,25.301,9.11,46.589,26.897,61.366       c10.938,5.661,21.878,11.326,32.822,16.991c8.355,4.333,16.716,8.655,25.074,12.988c6.721,3.476,13.441,6.953,20.162,10.44       c13.396-5.584,62.211-27.025,78.068-40.421c17.791-14.777,26.872-36.065,26.891-61.366c0.027-24.387,0.015-48.788-0.026-73.15       c-0.036-16.551-0.081-33.086-0.146-49.569C231.047,48.897,231.038,45.461,231.023,42.028" /></defs><clipPath
             id="SVGID_5_"><use
               xlink:href="#SVGID_4_"
               overflow="visible"
               id="use36" /></clipPath><linearGradient
             id="SVGID_6_"
             gradientUnits="userSpaceOnUse"
             x1="72.7324"
             y1="127.0876"
             x2="173.7326"
             y2="104.0876"
             gradientTransform="matrix(1 0 0 -1 -56.7402 259.4458)"><stop
               offset="0"
               style="stop-color:#DBC9B8"
               id="stop39" /><stop
               offset="0.3114"
               style="stop-color:#775024"
               id="stop41" /><stop
               offset="1"
               style="stop-color:#4E2700"
               id="stop43" /></linearGradient><rect
             x="20"
             y="36.5"
             clip-path="url(#SVGID_5_)"
             width="215"
             height="242.5"
             id="rect45"
             style="fill:#ffffff"
             fill="url(#SVGID_6_)" /></g></g><path
         fill="#3F1800"
         d="M126.277,276.838l-78.058-40.421C64.07,249.813,112.885,271.254,126.277,276.838"
         id="path47"
         style="fill:#000000" /><path
         fill="#3F1800"
         d="M241.396,174.952c0,14.096-2.492,27.069-7.381,38.572c-5.138,12.009-12.898,22.403-23.104,30.87    c-10.269,8.697-32.569,19.996-49.466,27.938c-9.668,4.55-18.491,8.447-24.207,10.915c-3.415,1.48-9.393,3.971-10.965,4.616v0.806    c1.576-0.66,7.83-3.276,11.264-4.758c5.711-2.468,14.552-6.37,24.216-10.915c24.64-11.594,41.347-21.018,49.642-28.038    c10.271-8.543,18.117-19.038,23.276-31.154c4.946-11.593,7.459-24.649,7.459-38.854V38.976l-0.731,0.425v135.552"
         id="path49"
         style="fill:#000000" /><path
         fill="#3F1800"
         d="M11.925,38.99c41.56-22.976,92.959-25.195,113.111-25.085h1.237h1.261    c20.149-0.109,71.545,2.11,113.104,25.085l0.758,0.411l0.732-0.425l-1.145-0.624c-41.709-23.061-93.238-25.284-113.465-25.175    h-1.246h-1.238c-20.213-0.108-71.757,2.114-113.463,25.168l-1.141,0.624l0.736,0.432L11.925,38.99"
         id="path51"
         style="fill:#000000" /><path
         d="M17.894,213.806c5.175,12.116,13.011,22.611,23.296,31.164c8.281,7.012,24.973,16.436,49.62,28.028    c9.661,4.545,18.51,8.447,24.22,10.915c3.42,1.48,9.69,4.098,11.246,4.758v-0.805c-1.555-0.646-7.534-3.137-10.957-4.617    c-5.71-2.468-14.547-6.365-24.209-10.915c-16.895-7.942-39.183-19.241-49.445-27.925c-10.206-8.48-17.972-18.876-23.098-30.885    c-4.895-11.503-7.38-24.478-7.38-38.572L11.168,39.401l-0.736-0.432l0.021,135.983C10.459,189.156,12.962,202.213,17.894,213.806"
         id="path53"
         fill="#3F1800"
         style="fill:#000000" /><path
         fill="#3F1800"
         d="M124.955,46.324c-40.541,8.123-74.899,25.46-102.128,51.537l0.734,0.321    c27.093-25.86,61.242-43.071,101.534-51.14c30.297-6.045,64.252-7.025,103.734-3.017l0.735-0.667    C189.729,39.265,155.491,40.234,124.955,46.324"
         id="path127"
         style="fill:#000000" /><path
         fill="#3F1800"
         d="M229.051,150.862c0,8.088-0.01,16.156-0.014,24.188c-0.021,24.876-9.045,45.504-26.107,59.677    c-14.693,12.41-59.492,32.533-76.65,39.727v0.79c16.97-7.099,62.283-27.414,77.123-39.951    c17.231-14.313,26.345-35.148,26.375-60.241c0.006-8.032,0.015-16.102,0.015-24.188c0-35.567-0.081-71.62-0.226-107.501    l-0.736,0.667C228.979,79.684,229.051,115.515,229.051,150.862"
         id="path129"
         style="fill:#000000" /><path
         fill="#3F1800"
         d="M49.625,234.723c-17.055-14.168-26.082-34.806-26.1-59.672c-0.014-7.915-0.014-15.938-0.014-24.075    c0-17.215,0.018-34.887,0.05-52.793l-0.734-0.321c-0.031,18.018-0.047,35.796-0.047,53.114c0,8.137,0.004,16.17,0.011,24.075    c0.018,25.093,9.14,45.92,26.359,60.241c14.769,12.465,60.137,32.831,77.127,39.951v-0.79    C109.102,267.233,64.24,247.065,49.625,234.723"
         id="path131"
         style="fill:#000000" /><path
         fill="#3F1800"
         d="M127.521,12.438l-1.246,0.011l-1.234-0.011c-20.273-0.11-71.944,2.125-113.804,25.275L9.7,38.538    l0.732,0.431l1.141-0.624c41.707-23.054,93.25-25.277,113.463-25.168h1.237h1.246c20.228-0.108,71.758,2.114,113.467,25.175    l1.144,0.624l0.736-0.438l-1.527-0.825C199.48,14.564,147.793,12.328,127.521,12.438"
         id="path133"
         style="fill:#000000" /><path
         fill="#3F1800"
         d="M242.13,174.952c0,14.203-2.513,27.261-7.459,38.854c-5.159,12.116-13.007,22.611-23.276,31.154    c-8.295,7.021-25.002,16.444-49.642,28.038c-9.664,4.545-18.505,8.447-24.216,10.915c-3.434,1.48-9.688,4.098-11.264,4.758v0.785    c1.576-0.659,8.119-3.385,11.558-4.865c5.715-2.484,14.562-6.379,24.247-10.929c24.676-11.615,41.429-21.085,49.777-28.143    c10.377-8.62,18.297-19.195,23.502-31.431c4.97-11.674,7.498-24.835,7.509-39.138V38.538l-0.736,0.438V174.952"
         id="path135"
         style="fill:#000000" /><path
         fill="#3F1800"
         d="M115.029,283.913c-5.71-2.468-14.559-6.37-24.22-10.915c-24.647-11.594-41.338-21.018-49.62-28.028    c-10.285-8.553-18.121-19.048-23.296-31.164c-4.932-11.593-7.434-24.649-7.441-38.854l-0.02-135.983L9.7,38.538l0.018,136.414    c0.011,14.303,2.528,27.464,7.504,39.138c5.209,12.233,13.12,22.811,23.493,31.431c8.349,7.058,25.094,16.526,49.777,28.143    c9.668,4.55,18.523,8.443,24.238,10.929c3.424,1.48,9.989,4.206,11.543,4.865v-0.785    C124.72,288.011,118.449,285.395,115.029,283.913"
         id="path137"
         style="fill:#000000" /><path
         fill="#905800"
         d="M161.445,272.334c16.896-7.942,39.197-19.241,49.466-27.938c10.206-8.467,17.968-18.861,23.104-30.87    c4.889-11.503,7.381-24.478,7.381-38.572V39.401l-1.459,0.87c0,44.907,0,89.783,0,134.683c0,27.272-9.396,51.244-29.957,68.326    c-19.657,16.636-83.864,43.155-83.707,42.997v1.591c1.572-0.646,7.55-3.137,10.966-4.617    C142.954,280.782,151.777,276.884,161.445,272.334"
         id="path595"
         style="fill:#000000" /><g
         id="g597"
         style="fill:#000000"><g
           id="g599"
           style="fill:#000000"><defs
             id="defs601"><path
               id="SVGID_87_"
               d="M42.59,243.279c-20.545-17.082-29.942-41.054-29.942-68.326c0-44.898-0.013-89.774-0.013-134.687       l-1.466-0.865l0.018,135.552c0,14.096,2.485,27.069,7.38,38.572c5.125,12.008,12.892,22.403,23.098,30.885       c10.262,8.684,32.551,19.981,49.445,27.925c9.662,4.55,18.499,8.447,24.209,10.915c3.422,1.48,9.401,3.971,10.957,4.617v-1.591       C126.455,286.435,62.247,259.914,42.59,243.279" /></defs><clipPath
             id="SVGID_88_"><use
               xlink:href="#SVGID_87_"
               overflow="visible"
               id="use605" /></clipPath><path
             clip-path="url(#SVGID_88_)"
             d="M42.59,243.279c-20.545-17.082-29.942-41.054-29.942-68.326      c0-44.898-0.013-89.774-0.013-134.687l-1.466-0.865l0.018,135.552c0,14.096,2.485,27.069,7.38,38.572      c5.125,12.008,12.892,22.403,23.098,30.885c10.262,8.684,32.551,19.981,49.445,27.925c9.662,4.55,18.499,8.447,24.209,10.915      c3.422,1.48,9.401,3.971,10.957,4.617v-1.591C126.455,286.435,62.247,259.914,42.59,243.279"
             id="path607"
             style="fill:#000000"
             fill="#FFD568" /></g><g
           id="g609"
           style="fill:#000000"><defs
             id="defs611"><path
               id="SVGID_89_"
               d="M42.59,243.279c-20.545-17.082-29.942-41.054-29.942-68.326c0-44.898-0.013-89.774-0.013-134.687       l-1.466-0.865l0.018,135.552c0,14.096,2.485,27.069,7.38,38.572c5.125,12.008,12.892,22.403,23.098,30.885       c10.262,8.684,32.551,19.981,49.445,27.925c9.662,4.55,18.499,8.447,24.209,10.915c3.422,1.48,9.401,3.971,10.957,4.617v-1.591       C126.455,286.435,62.247,259.914,42.59,243.279" /></defs><clipPath
             id="SVGID_90_"><use
               xlink:href="#SVGID_89_"
               overflow="visible"
               id="use615" /></clipPath><linearGradient
             id="SVGID_91_"
             gradientUnits="userSpaceOnUse"
             x1="-752.772"
             y1="-57.8474"
             x2="-748.1473"
             y2="-57.8474"
             gradientTransform="matrix(24.8811 0 0 56.5076 18740.9688 3432.4055)"><stop
               offset="0"
               style="stop-color:#FFD568"
               id="stop618" /><stop
               offset="0.8353"
               style="stop-color:#A36D12"
               id="stop620" /><stop
               offset="1"
               style="stop-color:#905800"
               id="stop622" /></linearGradient><rect
             x="11.168"
             y="39.401"
             clip-path="url(#SVGID_90_)"
             width="115.287"
             height="248.466"
             id="rect624"
             style="fill:#000000"
             fill="url(#SVGID_91_)" /></g></g><path
         fill="#FFD568"
         d="M126.273,15.359c-0.157,0.235,63.778-2.656,113.664,24.911l1.459-0.87l-0.758-0.411    c-41.561-22.976-92.955-25.195-113.104-25.085h-1.261h-1.237c-20.152-0.109-71.551,2.11-113.111,25.085L11.168,39.4l1.466,0.865    C62.519,12.698,126.455,15.594,126.273,15.359"
         id="path626"
         style="fill:#000000" /><path
         fill="#C27913"
         d="M124.955,46.324c30.536-6.091,64.771-7.06,104.609-2.964l1.465-1.333    c-33.256-3.497-69.896-4.42-106.364,2.855C88.268,52.17,52.042,67.655,21.361,97.22l1.466,0.642    C50.056,71.785,84.414,54.448,124.955,46.324"
         id="path1402"
         style="fill:#000000" /><path
         fill="#FFD568"
         d="M229.564,43.361c0.146,35.881,0.227,71.934,0.227,107.501c0,8.088-0.009,16.156-0.014,24.188    c-0.031,25.093-9.145,45.929-26.375,60.241c-14.842,12.537-60.154,32.854-77.125,39.951v1.6    c13.396-5.58,62.211-27.03,78.074-40.426c17.785-14.773,26.871-36.065,26.895-61.366c0.036-44.403-0.027-88.893-0.217-133.023    L229.564,43.361"
         id="path1404"
         style="fill:#000000" /><g
         id="g1406"
         style="fill:#000000"><g
           id="g1408"
           style="fill:#000000"><defs
             id="defs1410"><path
               id="SVGID_230_"
               d="M49.15,235.292c-17.22-14.321-26.341-35.148-26.359-60.241c-0.007-7.905-0.011-15.938-0.011-24.075       c0-17.318,0.016-35.097,0.047-53.114l-1.466-0.642c-0.043,25.91-0.068,51.89-0.039,77.831       c0.018,25.301,9.101,46.593,26.897,61.366c15.865,13.396,64.693,34.846,78.058,40.426v-1.6       C109.287,268.123,63.919,247.757,49.15,235.292" /></defs><clipPath
             id="SVGID_231_"><use
               xlink:href="#SVGID_230_"
               overflow="visible"
               id="use1414" /></clipPath><path
             clip-path="url(#SVGID_231_)"
             fill="#C27913"
             d="M49.15,235.292c-17.22-14.321-26.341-35.148-26.359-60.241      c-0.007-7.905-0.011-15.938-0.011-24.075c0-17.318,0.016-35.097,0.047-53.114l-1.466-0.642      c-0.043,25.91-0.068,51.89-0.039,77.831c0.018,25.301,9.101,46.593,26.897,61.366c15.865,13.396,64.693,34.846,78.058,40.426      v-1.6C109.287,268.123,63.919,247.757,49.15,235.292"
             id="path1416"
             style="fill:#000000" /></g><g
           id="g1418"
           style="fill:#000000"><defs
             id="defs1420"><path
               id="SVGID_232_"
               d="M49.15,235.292c-17.22-14.321-26.341-35.148-26.359-60.241c-0.007-7.905-0.011-15.938-0.011-24.075       c0-17.318,0.016-35.097,0.047-53.114l-1.466-0.642c-0.043,25.91-0.068,51.89-0.039,77.831       c0.018,25.301,9.101,46.593,26.897,61.366c15.865,13.396,64.693,34.846,78.058,40.426v-1.6       C109.287,268.123,63.919,247.757,49.15,235.292" /></defs><clipPath
             id="SVGID_233_"><use
               xlink:href="#SVGID_232_"
               overflow="visible"
               id="use1424" /></clipPath><linearGradient
             id="SVGID_234_"
             gradientUnits="userSpaceOnUse"
             x1="-776.4253"
             y1="-53.5916"
             x2="-771.7988"
             y2="-53.5916"
             gradientTransform="matrix(0 -38.8261 25.494 0 1440.0376 -29868.7324)"><stop
               offset="0"
               style="stop-color:#C27913"
               id="stop1427" /><stop
               offset="0.3"
               style="stop-color:#DB9A28"
               id="stop1429" /><stop
               offset="1"
               style="stop-color:#C27913"
               id="stop1431" /></linearGradient><rect
             x="21.293"
             y="97.22"
             clip-path="url(#SVGID_233_)"
             fill="url(#SVGID_234_)"
             width="104.984"
             height="179.623"
             id="rect1433"
             style="fill:#000000" /></g></g><g
         transform="translate(0,-2.9199219e-6)"
         id="g1435"
         style="fill:#000000"><g
           id="g1437"
           style="fill:#000000"><defs
             id="defs1439"><path
               inkscape:connector-curvature="0"
               id="SVGID_235_"
               d="m 203.863,171.455 c -0.137,-6.379 -3.637,-9.826 -12.446,-15.055 -16.59,-9.84 -19.651,-17.991 -19.698,-28.863 -0.1,-16.492 13.815,-26.019 26.928,-26.266 10.969,-0.21 18.302,4.056 21.758,6.807 0.018,5.839 0.031,11.689 0.035,17.535 -4.088,-4.346 -10.729,-8.328 -17.701,-8.452 -5.655,-0.106 -11.564,2.388 -11.745,9.625 -0.163,7.391 5.771,10.341 13.165,14.794 16.599,10.014 19.611,18.858 19.291,30.624 -0.426,12.894 -8.999,27.08 -28.778,27.297 -7.925,0.081 -15.795,-2.367 -22.119,-6.108 0.026,-6.248 0.046,-12.505 0.054,-18.785 5.179,4.653 12.881,8.204 19.273,8.204 7.335,-0.003 12.141,-4.309 11.983,-11.357 m -82.355,-52.703 c 1.653,-0.802 4.486,-1.461 7.242,-1.461 11.877,0 16.811,9.479 16.829,32.434 -0.011,22.381 -5.652,33.17 -17.435,33.17 -2.751,0 -5.165,-0.688 -6.638,-1.238 -0.003,-20.923 -0.001,-41.983 0.002,-62.905 z m 0.04,121.993 c -0.009,-13.979 -0.025,-28.143 -0.027,-42.409 2.028,0.597 5.02,1.139 9.208,1.134 22.644,-0.022 35.694,-20.411 35.694,-50.288 -0.014,-29.795 -13.432,-48.272 -37.823,-48.287 -11.118,0 -20.116,2.472 -27.493,7.283 -0.102,44.203 -0.041,89.246 0.176,132.508 6.75,0.037 13.509,0.054 20.265,0.059 z M 61.545,182.316 c 4.086,0.026 7.346,-0.895 9.528,-2.403 -0.072,-25.563 -0.05,-51.282 0.075,-76.747 6.711,-0.057 13.458,-0.103 20.222,-0.131 -0.099,29.363 -0.106,59.117 -0.018,88.542 -7.762,5.269 -18.146,8.068 -30.43,7.955 C 41.086,199.33 31.355,188.35 31.317,167.01 c 0,-21.145 0.002,-42.319 0.002,-63.419 6.535,-0.093 13.143,-0.165 19.791,-0.239 -0.102,21.469 -0.138,43.086 -0.102,64.648 0.017,5.728 1.372,14.253 10.537,14.316 z" /></defs><clipPath
             id="clipPath3572"><use
               height="1052.3622"
               width="744.09448"
               y="0"
               x="0"
               style="overflow:visible"
               xlink:href="#SVGID_235_"
               overflow="visible"
               id="use3574" /></clipPath><path
             inkscape:connector-curvature="0"
             clip-path="url(#SVGID_236_)"
             d="m 203.863,171.455 c -0.137,-6.379 -3.637,-9.826 -12.446,-15.055 -16.59,-9.84 -19.651,-17.991 -19.698,-28.863 -0.1,-16.492 13.815,-26.019 26.928,-26.266 10.969,-0.21 18.302,4.056 21.758,6.807 0.018,5.839 0.031,11.689 0.035,17.535 -4.088,-4.346 -10.729,-8.328 -17.701,-8.452 -5.655,-0.106 -11.564,2.388 -11.745,9.625 -0.163,7.391 5.771,10.341 13.165,14.794 16.599,10.014 19.611,18.858 19.291,30.624 -0.426,12.894 -8.999,27.08 -28.778,27.297 -7.925,0.081 -15.795,-2.367 -22.119,-6.108 0.026,-6.248 0.046,-12.505 0.054,-18.785 5.179,4.653 12.881,8.204 19.273,8.204 7.335,-0.003 12.141,-4.309 11.983,-11.357 m -82.355,-52.703 c 1.653,-0.802 4.486,-1.461 7.242,-1.461 11.877,0 16.811,9.479 16.829,32.434 -0.011,22.381 -5.652,33.17 -17.435,33.17 -2.751,0 -5.165,-0.688 -6.638,-1.238 -0.003,-20.923 -0.001,-41.983 0.002,-62.905 z m 0.04,121.993 c -0.009,-13.979 -0.025,-28.143 -0.027,-42.409 2.028,0.597 5.02,1.139 9.208,1.134 22.644,-0.022 35.694,-20.411 35.694,-50.288 -0.014,-29.795 -13.432,-48.272 -37.823,-48.287 -11.118,0 -20.116,2.472 -27.493,7.283 -0.102,44.203 -0.041,89.246 0.176,132.508 6.75,0.037 13.509,0.054 20.265,0.059 z M 61.545,182.316 c 4.086,0.026 7.346,-0.895 9.528,-2.403 -0.072,-25.563 -0.05,-51.282 0.075,-76.747 6.711,-0.057 13.458,-0.103 20.222,-0.131 -0.099,29.363 -0.106,59.117 -0.018,88.542 -7.762,5.269 -18.146,8.068 -30.43,7.955 C 41.086,199.33 31.355,188.35 31.317,167.01 c 0,-21.145 0.002,-42.319 0.002,-63.419 6.535,-0.093 13.143,-0.165 19.791,-0.239 -0.102,21.469 -0.138,43.086 -0.102,64.648 0.017,5.728 1.372,14.253 10.537,14.316 z"
             id="path1445"
             style="fill:#000000" /></g><g
           id="g1447"
           style="fill:#000000"><defs
             id="defs1449"><path
               inkscape:connector-curvature="0"
               id="SVGID_237_"
               d="m 203.863,171.455 c -0.137,-6.379 -3.637,-9.826 -12.446,-15.055 -16.59,-9.84 -19.651,-17.991 -19.698,-28.863 -0.1,-16.492 13.815,-26.019 26.928,-26.266 10.969,-0.21 18.302,4.056 21.758,6.807 0.018,5.839 0.031,11.689 0.035,17.535 -4.088,-4.346 -10.729,-8.328 -17.701,-8.452 -5.655,-0.106 -11.564,2.388 -11.745,9.625 -0.163,7.391 5.771,10.341 13.165,14.794 16.599,10.014 19.611,18.858 19.291,30.624 -0.426,12.894 -8.999,27.08 -28.778,27.297 -7.925,0.081 -15.795,-2.367 -22.119,-6.108 0.026,-6.248 0.046,-12.505 0.054,-18.785 5.179,4.653 12.881,8.204 19.273,8.204 7.335,-0.003 12.141,-4.309 11.983,-11.357 m -82.355,-52.703 c 1.653,-0.802 4.486,-1.461 7.242,-1.461 11.877,0 16.811,9.479 16.829,32.434 -0.011,22.381 -5.652,33.17 -17.435,33.17 -2.751,0 -5.165,-0.688 -6.638,-1.238 -0.003,-20.923 -0.001,-41.983 0.002,-62.905 z m 0.04,121.993 c -0.009,-13.979 -0.025,-28.143 -0.027,-42.409 2.028,0.597 5.02,1.139 9.208,1.134 22.644,-0.022 35.694,-20.411 35.694,-50.288 -0.014,-29.795 -13.432,-48.272 -37.823,-48.287 -11.118,0 -20.116,2.472 -27.493,7.283 -0.102,44.203 -0.041,89.246 0.176,132.508 6.75,0.037 13.509,0.054 20.265,0.059 z M 61.545,182.316 c 4.086,0.026 7.346,-0.895 9.528,-2.403 -0.072,-25.563 -0.05,-51.282 0.075,-76.747 6.711,-0.057 13.458,-0.103 20.222,-0.131 -0.099,29.363 -0.106,59.117 -0.018,88.542 -7.762,5.269 -18.146,8.068 -30.43,7.955 C 41.086,199.33 31.355,188.35 31.317,167.01 c 0,-21.145 0.002,-42.319 0.002,-63.419 6.535,-0.093 13.143,-0.165 19.791,-0.239 -0.102,21.469 -0.138,43.086 -0.102,64.648 0.017,5.728 1.372,14.253 10.537,14.316 z" /></defs><clipPath
             id="clipPath3580"><use
               height="1052.3622"
               width="744.09448"
               y="0"
               x="0"
               style="overflow:visible"
               xlink:href="#SVGID_237_"
               overflow="visible"
               id="use3582" /></clipPath><radialGradient
             id="SVGID_239_"
             cx="121.9072"
             cy="134.6106"
             r="132.3331"
             gradientTransform="matrix(1,0,0,-1,-56.7402,259.4458)"
             gradientUnits="userSpaceOnUse"><stop
               offset="0"
               style="stop-color:#FFE7B0"
               id="stop1456" /><stop
               offset="0.5275"
               style="stop-color:#FEBF52"
               id="stop1458" /><stop
               offset="0.5568"
               style="stop-color:#F9B94C"
               id="stop1460" /><stop
               offset="1"
               style="stop-color:#DA9017"
               id="stop1462" /></radialGradient><rect
             x="30.833"
             y="100.833"
             clip-path="url(#SVGID_238_)"
             width="193.33299"
             height="140.66701"
             id="rect1464"
             style="fill:#000000" /></g></g></g></g></svg>